<svg xmlns="http://www.w3.org/2000/svg" width="64" height="64"><path d="M6.752 180.672c-27.104 27.136-21.312 65.344.256 86.88.864.832 87.488 83.584 209.312 205.408 3.136 3.136 7.232 4.672 11.328 4.672s8.192-1.568 11.328-4.672c6.24-6.24 6.24-16.384 0-22.624a18958.96 18958.96 0 0 0-52.416-52.192l50.848-50.848c6.24-6.24 6.24-16.384 0-22.624s-16.384-6.24-22.624 0l-50.976 50.976a15940.829 15940.829 0 0 0-74.08-72.672l115.68-115.68c6.24-6.24 6.24-16.384 0-22.624s-16.384-6.24-22.624 0L66.752 280.704c-23.552-22.816-37.12-35.776-37.344-36-6.752-6.752-15.616-25.76 0-41.376l160-160c6.176-6.272 22.624-18.72 40.672-.768.8.896 81.6 92.672 204.928 216 6.24 6.24 16.384 6.24 22.624 0s6.24-16.384 0-22.624C335.072 113.408 254.88 22.336 253.408 20.672c-29.824-29.76-65.792-20.832-86.624 0l-160.032 160zm678.656 592c-6.24-6.24-16.384-6.24-22.624 0l-50.912 50.88c-15.52-15.712-31.808-32.16-48.96-49.312-6.24-6.24-16.384-6.24-22.624 0s-6.24 16.384 0 22.624C658.816 915.36 741.6 1003.872 742.784 1005.152c10.976 11.008 26.016 17.056 42.336 17.056 16.8 0 33.792-6.56 44.32-17.12l159.936-161.824c20.128-20.128 21.28-54.272 2.496-73.12L777.28 555.584c-6.24-6.24-16.384-6.24-22.624 0s-6.24 16.384 0 22.624l214.592 214.56c6.4 6.4 5.184 20.224-2.528 27.936L806.752 982.528c-3.68 3.712-12.032 7.68-21.632 7.68-5.504 0-13.376-1.344-19.328-7.328-.32-.352-13.728-14.656-36.992-39.008l116.608-116.608c6.24-6.24 6.24-16.384 0-22.624s-16.384-6.24-22.624 0L706.656 920.768a10515.805 10515.805 0 0 0-72.32-74.432l51.072-51.072c6.24-6.208 6.24-16.32 0-22.592zM-9.376 1018.528c3.072 3.136 7.2 4.8 11.456 4.8 1.536 0 3.072-.224 4.576-.672l320-95.328a15.694 15.694 0 0 0 6.784-4.064l546.88-550.56c.768-.768 1.152-1.76 1.728-2.624L999.04 253.088c9.408-9.44 14.624-21.952 14.624-35.296 0-13.312-5.216-25.824-14.624-35.2L831.52 15.104c-18.816-18.816-51.68-18.816-70.496 0L641.376 134.752c-.768.768-1.184 1.76-1.76 2.656L91.904 685.152A15.841 15.841 0 0 0 88 691.52L-13.12 1002.4c-1.856 5.664-.416 11.84 3.744 16.128zM653.6 168.672l33.248 33.248L190.112 700l-55.264-12.544L653.6 168.672zm-443.52 556.64l499.424-500.736 77.952 77.952L283.52 800h-73.44v-74.688zm636.288-363.84L326.56 884.8l-18.464-64.064L810.08 325.152l36.288 36.32zM113.856 715.488l64.224 14.592V816c0 8.832 7.168 16 16 16h83.968l20.288 70.4L26.72 983.328l87.136-267.84zM783.68 37.728c6.752-6.752 18.496-6.752 25.248 0l167.52 167.52a17.717 17.717 0 0 1 5.216 12.608c0 4.736-1.856 9.248-5.248 12.64L868.544 338.4 675.808 145.664 783.68 37.728z"/></svg>