<svg xmlns="http://www.w3.org/2000/svg" viewBox="0 0 438 438" width="25" height="25"><path d="M279.25 0c-86 0-156 70-156 156 0 36 11 69 31 95l-145 145c-10 10-10 25 0 35 5 5 11 7 17 7s13-2 18-7l146-146c25 18 56 28 89 28 86 0 157-71 157-157s-71-156-157-156zm0 269c-62 0-113-51-113-113s51-113 113-113 113 51 113 113-51 113-113 113z" data-original="#010002" class="active-path" data-old_color="#010002" fill="#574C45"/><path d="M311.25 78c-11-5-23 0-28 11s0 24 11 29c1 1 27 13 24 35-2 13 8 25 22 25 11 0 20-8 21-19 6-44-29-72-50-81zm-5 110c-12 0-22 10-22 22s10 21 22 21 22-9 22-21-10-22-22-22z" data-original="#010002" class="active-path" data-old_color="#010002" fill="#574C45"/></svg>