<svg xmlns="http://www.w3.org/2000/svg" width="72" height="70" viewBox="0 0 19.85 19.37" shape-rendering="geometricPrecision" text-rendering="geometricPrecision" image-rendering="optimizeQuality" fill-rule="evenodd" clip-rule="evenodd"><path d="M1.81 14.04a1.775 1.775 0 0 1 0 3.55 1.775 1.775 0 1 1 0-3.55zM.03 11.02h3.56v4.9H.03v-4.9zm4.9-1.39h3.59v5.39c0 .55.22.82.67.82.44 0 .66-.27.66-.82l.01-1.75h3.58v1.68c0 1.24-.41 2.29-1.24 3.14-.82.85-1.83 1.28-3.02 1.28-1.36 0-2.46-.49-3.28-1.48-.64-.78-.97-1.85-.97-3.23V9.63zm8.51 3.64H9.86V5.31c0-1.47.38-2.66 1.15-3.58.44-.52 1-.95 1.68-1.26.68-.31 1.38-.47 2.09-.47 1.43 0 2.63.48 3.6 1.44.98.95 1.47 2.13 1.47 3.52 0 1.35-.49 2.52-1.46 3.5-.97.99-2.11 1.48-3.44 1.48-.22 0-.54-.02-.96-.07V5.93c.3.23.59.34.88.34.38 0 .69-.14.96-.41.26-.27.4-.6.4-.97 0-.38-.14-.7-.42-.97-.27-.26-.6-.39-.99-.39-.92 0-1.38.63-1.38 1.91v7.83zM8.52 9.63H4.93L4.92 6.1c0-.54-.22-.82-.67-.82-.44 0-.66.28-.66.82v4.92H.03L0 6.17c-.01-1.24.41-2.29 1.23-3.14.83-.85 1.83-1.28 3.03-1.28 1.36 0 2.46.5 3.28 1.49.64.77.96 1.84.97 3.22l.01 3.17z" fill="#fff" fill-rule="nonzero"/></svg>