<svg xmlns="http://www.w3.org/2000/svg" viewBox="0 0 320 320" width="64" height="64"><path d="M292.697 19.995H27.303C12.223 19.995 0 32.219 0 47.299v163.822c0 15.079 12.223 27.304 27.303 27.304H133.79v24.7h-21.544c-10.185 0-18.439 8.255-18.439 18.44 0 10.184 8.255 18.44 18.439 18.44h95.508c10.186 0 18.44-8.256 18.44-18.44 0-10.185-8.254-18.44-18.44-18.44H186.21v-24.7h106.487c15.08 0 27.303-12.225 27.303-27.304V47.299c0-15.08-12.223-27.304-27.303-27.304zM32.181 179.96c0-14.4 11.715-26.116 26.115-26.116 14.401 0 26.115 11.716 26.115 26.116s-11.713 26.116-26.115 26.116c-14.4 0-26.115-11.716-26.115-26.116zm256.147 26.792H127.579a4.86 4.86 0 0 0-1.292-5.409l-10.479-9.308a58.822 58.822 0 0 0 1.251-12.075 58.78 58.78 0 0 0-1.253-12.085l10.478-9.305a4.867 4.867 0 0 0 .983-6.072l-10.706-18.544a4.866 4.866 0 0 0-5.75-2.184l-13.338 4.434a58.762 58.762 0 0 0-20.884-12.086l-2.821-13.73a4.868 4.868 0 0 0-4.769-3.887H47.586a4.869 4.869 0 0 0-4.768 3.887l-2.82 13.733a58.493 58.493 0 0 0-8.326 3.484V51.667h256.655v155.085z" data-original="#000000" class="active-path" data-old_color="#822929" fill="#574C45"/><path d="M143.873 127.778a2.868 2.868 0 0 0-3.389 1.288l-6.312 10.931a2.871 2.871 0 0 0 .579 3.578l6.177 5.486a34.62 34.62 0 0 0-.737 7.116c0 2.441.256 4.823.739 7.123l-6.176 5.484a2.87 2.87 0 0 0-.58 3.579l6.311 10.93a2.867 2.867 0 0 0 3.388 1.287l7.861-2.613a34.658 34.658 0 0 0 12.31 7.124l1.663 8.093a2.87 2.87 0 0 0 2.811 2.289h12.62a2.868 2.868 0 0 0 2.81-2.289l1.663-8.095a34.659 34.659 0 0 0 12.309-7.126l7.859 2.613a2.871 2.871 0 0 0 3.389-1.288l6.311-10.93a2.871 2.871 0 0 0-.58-3.579l-6.177-5.486a34.644 34.644 0 0 0-.001-14.239l6.175-5.484a2.87 2.87 0 0 0 .579-3.58l-6.31-10.929a2.866 2.866 0 0 0-3.389-1.287l-7.861 2.613a34.645 34.645 0 0 0-12.311-7.123l-1.663-8.093a2.868 2.868 0 0 0-2.809-2.291h-12.621a2.87 2.87 0 0 0-2.81 2.291l-1.663 8.095a34.635 34.635 0 0 0-12.309 7.126l-7.856-2.614zm30.954 13.007c8.487 0 15.392 6.905 15.392 15.393s-6.905 15.394-15.392 15.394c-8.487 0-15.394-6.905-15.394-15.394.001-8.488 6.907-15.393 15.394-15.393zm-70.139-48.847a23.763 23.763 0 0 0 .001 9.76l-4.232 3.758a1.967 1.967 0 0 0-.396 2.453l4.326 7.492a1.964 1.964 0 0 0 2.322.882l5.388-1.792a23.75 23.75 0 0 0 8.436 4.884l1.14 5.546a1.967 1.967 0 0 0 1.925 1.569h8.651a1.965 1.965 0 0 0 1.925-1.569l1.141-5.548a23.752 23.752 0 0 0 8.436-4.884l5.387 1.792a1.966 1.966 0 0 0 2.322-.883l4.326-7.491a1.97 1.97 0 0 0-.397-2.453l-4.233-3.76a23.755 23.755 0 0 0-.001-9.76l4.232-3.759a1.97 1.97 0 0 0 .398-2.453l-4.326-7.491a1.965 1.965 0 0 0-2.322-.883l-5.388 1.791a23.752 23.752 0 0 0-8.437-4.883l-1.14-5.547a1.966 1.966 0 0 0-1.925-1.57h-8.65c-.934 0-1.738.656-1.926 1.57l-1.14 5.549a23.726 23.726 0 0 0-8.435 4.883l-5.388-1.792a1.967 1.967 0 0 0-2.322.883l-4.325 7.491c-.467.808-.3 1.833.396 2.452l4.231 3.763zm23.234-5.673c5.816 0 10.549 4.732 10.549 10.55 0 5.818-4.732 10.549-10.549 10.549s-10.55-4.731-10.55-10.549c0-5.817 4.733-10.55 10.55-10.55z" data-original="#000000" class="active-path" data-old_color="#822929" fill="#574C45"/></svg>