<?xml version="1.0"?>
<svg xmlns="http://www.w3.org/2000/svg" viewBox="0 0 512 512" width="512px" height="512px" class=""><g transform="matrix(0.999 0 0 0.999 0.255884 0.255884)"><path d="m155.394531 266.605469c5.855469 5.859375 15.355469 5.859375 21.210938 0l60-60c5.859375-5.855469 5.859375-15.351563 0-21.210938-5.855469-5.859375-15.351563-5.859375-21.210938 0l-49.394531 49.390625-19.394531-19.390625c-5.855469-5.859375-15.355469-5.859375-21.210938 0-5.859375 5.855469-5.859375 15.351563 0 21.210938zm0 0" data-original="#000000" class="active-path" data-old_color="##574C4" fill="#574C45"/><path d="m336.394531 326.605469 30 30c5.855469 5.859375 15.355469 5.859375 21.210938 0l60-60c5.859375-5.855469 5.859375-15.351563 0-21.210938-5.855469-5.859375-15.351563-5.859375-21.210938 0l-49.394531 49.390625-19.394531-19.390625c-5.855469-5.859375-15.355469-5.859375-21.210938 0-5.859375 5.855469-5.859375 15.355469 0 21.210938zm0 0" data-original="#000000" class="active-path" data-old_color="##574C4" fill="#574C45"/><path d="m45 452h227v15c0 24.8125 20.1875 45 45 45h150c24.8125 0 45-20.1875 45-45v-301c0-24.8125-20.1875-45-45-45h-105v-76c0-24.8125-20.1875-45-45-45h-272c-24.8125 0-45 20.1875-45 45v362c0 24.8125 20.1875 45 45 45zm-15-45v-16h242v31h-227c-8.269531 0-15-6.730469-15-15zm452 15h-180v-211h180zm-15 60h-150c-8.269531 0-15-6.730469-15-15v-15h180v15c0 8.269531-6.730469 15-15 15zm15-316v15h-180v-15c0-8.269531 6.730469-15 15-15h150c8.269531 0 15 6.730469 15 15zm-437-136h272c8.269531 0 15 6.730469 15 15v76h-15c-24.8125 0-45 20.1875-45 45v195h-242v-316c0-8.269531 6.730469-15 15-15zm0 0" data-original="#000000" class="active-path" data-old_color="##574C4" fill="#574C45"/></g> </svg>
