<svg xmlns="http://www.w3.org/2000/svg" width="64" height="64"><path d="M100.32 220.48c29.856-23.2 54.624-7.2 87.68 31.072 3.712 4.32 8.704-.736 11.552-3.2 2.816-2.496 46.432-41.76 48.576-43.552 2.112-1.888 4.672-5.408 1.312-9.344-3.424-3.936-15.808-20-23.776-30.432-57.856-75.68 158.272-127.008 125.088-127.808-16.896-.448-84.672-1.248-94.816-.128-41.056 4.32-92.608 42.688-118.56 60.576-33.952 23.232-46.624 36.864-48.704 38.752-9.6 8.384-1.536 27.744-18.944 43.008-18.4 16.096-29.888 3.904-40.544 13.248-5.28 4.672-20.064 15.744-24.288 19.424-4.256 3.744-5.024 10.048-.672 15.072 0 0 40.448 44.672 43.84 48.64 3.36 3.904 12.512 7.296 18.144 2.272 5.664-4.992 20.224-17.696 22.656-19.936 2.496-2.112-1.6-27.552 11.456-37.664zm182.656 16.544c-3.84-4.448-8.608-4.576-12.704-.928l-45.888 40.064c-3.616 3.2-4.128 9.056-.864 12.8l265.408 302.048c6.208 7.136 16.96 7.872 24.032 1.696L544 566.688c7.104-6.24 7.84-17.056 1.664-24.256L282.976 237.024zM636.864 108.48c-2.368-15.808-10.56-12.512-14.816-5.824-4.256 6.752-23.072 35.264-30.816 48.192-7.68 12.8-26.624 38.112-61.888 13.12-36.736-25.952-23.968-44.064-17.568-56.256 6.432-12.256 26.176-46.624 29.024-50.88 2.848-4.32-.48-16.864-11.872-11.616-11.424 5.248-80.736 32.8-90.336 72.32-9.824 40.192 8.224 76.128-27.2 111.808l-42.976 44.8 43.168 50.112 52.928-50.24c12.608-12.672 39.552-24.992 63.936-19.424 52.256 11.808 80.768-7.808 97.952-40.256 15.424-28.992 12.864-90.048 10.464-105.856zM87.648 545.696c-6.656 6.688-6.656 17.568 0 24.256l30.432 29.76c6.656 6.688 17.216 3.872 23.872-2.816l157.024-154.368-48.096-54.848L87.648 545.696z"/></svg>