<svg xmlns="http://www.w3.org/2000/svg" viewBox="0 0 329.531 329.531" width="64" height="64"><path d="M242.712 18.778c-4.296-4.296-4.296-11.261 0-15.557 4.296-4.295 11.26-4.295 15.556 0l42.589 42.587c4.296 4.296 4.296 11.261 0 15.557a10.97 10.97 0 0 1-7.778 3.222c-2.815 0-5.63-1.074-7.778-3.222l-42.589-42.587zm63.481 288.753H23.338c-6.075 0-11 4.925-11 11s4.925 11 11 11h282.854c6.075 0 11-4.925 11-11s-4.924-11-10.999-11zM28.675 275.405a10.998 10.998 0 0 1-2.861-10.573l15.176-57.767a11.003 11.003 0 0 1 2.861-4.983l169.027-169.03c4.296-4.295 11.26-4.295 15.556 0l42.591 42.589a10.998 10.998 0 0 1 0 15.556L101.997 260.225a11 11 0 0 1-4.982 2.86l-57.766 15.18a10.996 10.996 0 0 1-10.574-2.86zM51.879 252.2l36.666-9.636L247.691 83.419l-27.034-27.032L61.512 215.534 51.879 252.2z" data-original="#000000" class="active-path" data-old_color="#7B4747" fill="#574C45"/></svg>