<?xml version="1.0" encoding="utf-8"?><svg width="299" height="248" viewBox="0 0 299 248" xmlns="http://www.w3.org/2000/svg" xmlns:xlink="http://www.w3.org/1999/xlink"><svg width="27" height="27" viewBox="-1 -1 513.63 513.63" id="calendar-with-spring-binder-and-date-blocks" x="272" y="54" xmlns="http://www.w3.org/2000/svg"><path d="M482.513 83.942c-7.225-7.233-15.797-10.85-25.694-10.85h-36.541v-27.41c0-12.56-4.477-23.315-13.422-32.261C397.906 4.475 387.157 0 374.591 0h-18.268c-12.565 0-23.318 4.475-32.264 13.422-8.949 8.945-13.422 19.701-13.422 32.261v27.41h-109.63v-27.41c0-12.56-4.475-23.315-13.422-32.261C178.64 4.475 167.886 0 155.321 0H137.05c-12.562 0-23.317 4.475-32.264 13.422-8.945 8.945-13.421 19.701-13.421 32.261v27.41H54.823c-9.9 0-18.464 3.617-25.697 10.85-7.233 7.232-10.85 15.8-10.85 25.697v365.453c0 9.89 3.617 18.456 10.85 25.693 7.232 7.231 15.796 10.849 25.697 10.849h401.989c9.897 0 18.47-3.617 25.694-10.849 7.234-7.234 10.852-15.804 10.852-25.693V109.639c-.001-9.9-3.615-18.464-10.845-25.697zM137.047 475.088H54.823v-82.23h82.224v82.23zm0-100.498H54.823v-91.358h82.224v91.358zm0-109.639H54.823v-82.223h82.224v82.223zm-6.42-130.618c-1.809-1.809-2.712-3.946-2.712-6.423V45.686c0-2.474.903-4.617 2.712-6.423 1.809-1.809 3.946-2.712 6.423-2.712h18.271c2.474 0 4.617.903 6.423 2.712 1.809 1.807 2.714 3.949 2.714 6.423v82.224c0 2.478-.909 4.615-2.714 6.423-1.807 1.809-3.946 2.712-6.423 2.712H137.05c-2.474.001-4.614-.903-6.423-2.712zm116.056 340.755h-91.365v-82.23h91.365v82.23zm0-100.498h-91.365v-91.358h91.365v91.358zm0-109.639h-91.365v-82.223h91.365v82.223zm109.64 210.137h-91.364v-82.23h91.364v82.23zm0-100.498h-91.364v-91.358h91.364v91.358zm0-109.639h-91.364v-82.223h91.364v82.223zm-6.427-130.618c-1.807-1.809-2.707-3.946-2.707-6.423V45.686c0-2.474.9-4.617 2.707-6.423 1.808-1.809 3.949-2.712 6.427-2.712h18.268c2.478 0 4.617.903 6.427 2.712 1.808 1.807 2.707 3.949 2.707 6.423v82.224c0 2.478-.903 4.615-2.707 6.423-1.807 1.809-3.949 2.712-6.427 2.712h-18.268c-2.477.001-4.626-.903-6.427-2.712zm106.916 340.755h-82.228v-82.23h82.228v82.23zm0-100.498h-82.228v-91.358h82.228v91.358zm0-109.639h-82.228v-82.223h82.228v82.223z" data-original="#000000" class="aactive-path" data-old_color="#000000" fill="#574C45"/></svg><svg width="66" height="66" viewBox="-1 -1 99.62 99.62" id="checkmark-for-verification" x="206" y="132" xmlns="http://www.w3.org/2000/svg"><path d="M96.939 17.358L83.968 5.959a1.99 1.99 0 0 0-1.449-.494 2.002 2.002 0 0 0-1.373.677L34.1 59.688 17.372 37.547a1.995 1.995 0 0 0-1.319-.773 1.972 1.972 0 0 0-1.481.385L.794 47.567a2 2 0 0 0-.39 2.801l30.974 40.996c.362.479.922.771 1.522.793h.073c.574 0 1.122-.246 1.503-.68L97.12 20.18a1.998 1.998 0 0 0-.181-2.822z" data-original="#000000" class="bactive-path" data-old_color="#4CD78A" fill="#4BD789"/></svg><svg width="44" height="44" viewBox="-1 -1 513.63 513.63" id="contact-icons--envelope" x="132" y="204" xmlns="http://www.w3.org/2000/svg"><path d="M49.106 178.729c6.472 4.567 25.981 18.131 58.528 40.685 32.548 22.554 57.482 39.92 74.803 52.099 1.903 1.335 5.946 4.237 12.131 8.71 6.186 4.476 11.326 8.093 15.416 10.852 4.093 2.758 9.041 5.852 14.849 9.277 5.806 3.422 11.279 5.996 16.418 7.7 5.14 1.718 9.898 2.569 14.275 2.569h.575c4.377 0 9.137-.852 14.277-2.569 5.137-1.704 10.615-4.281 16.416-7.7 5.804-3.429 10.752-6.52 14.845-9.277 4.093-2.759 9.229-6.376 15.417-10.852 6.184-4.477 10.232-7.375 12.135-8.71 17.508-12.179 62.051-43.11 133.615-92.79 13.894-9.703 25.502-21.411 34.827-35.116 9.332-13.699 13.993-28.07 13.993-43.105 0-12.564-4.523-23.319-13.565-32.264-9.041-8.947-19.749-13.418-32.117-13.418H45.679c-14.655 0-25.933 4.948-33.832 14.844C3.949 79.562 0 91.934 0 106.779c0 11.991 5.236 24.985 15.703 38.974 10.466 13.99 21.604 24.983 33.403 32.976z" data-original="#000000" class="cactive-path" data-old_color="#000000" fill="#574C45"/><path d="M483.072 209.275c-62.424 42.251-109.824 75.087-142.177 98.501-10.849 7.991-19.65 14.229-26.409 18.699-6.759 4.473-15.748 9.041-26.98 13.702-11.228 4.668-21.692 6.995-31.401 6.995h-.578c-9.707 0-20.177-2.327-31.405-6.995-11.228-4.661-20.223-9.229-26.98-13.702-6.755-4.47-15.559-10.708-26.407-18.699-25.697-18.842-72.995-51.68-141.896-98.501C17.987 202.047 8.375 193.762 0 184.437v226.685c0 12.57 4.471 23.319 13.418 32.265 8.945 8.949 19.701 13.422 32.264 13.422h420.266c12.56 0 23.315-4.473 32.261-13.422 8.949-8.949 13.418-19.694 13.418-32.265V184.437c-8.186 9.132-17.7 17.417-28.555 24.838z" data-original="#000000" class="cactive-path" data-old_color="#000000" fill="#574C45"/></svg><svg width="27" height="27" viewBox="-1 -1 51.65 51.65" id="contact-icons--facebook-logo-button" x="272" xmlns="http://www.w3.org/2000/svg"><path d="M24.826 0C11.137 0 0 11.137 0 24.826c0 13.688 11.137 24.826 24.826 24.826 13.688 0 24.826-11.138 24.826-24.826C49.652 11.137 38.516 0 24.826 0zM31 25.7h-4.039v14.396h-5.985V25.7h-2.845v-5.088h2.845v-3.291c0-2.357 1.12-6.04 6.04-6.04l4.435.017v4.939h-3.219c-.524 0-1.269.262-1.269 1.386v2.99h4.56L31 25.7z" data-original="#000000" class="dactive-path" data-old_color="#000000" fill="#574C45"/></svg><svg width="27" height="27" viewBox="-1 -1 440.55 440.55" id="contact-icons--github-logo" x="230" y="204" xmlns="http://www.w3.org/2000/svg"><path d="M409.132 114.573c-19.608-33.596-46.205-60.194-79.798-79.8-33.598-19.607-70.277-29.408-110.063-29.408-39.781 0-76.472 9.804-110.063 29.408-33.596 19.605-60.192 46.204-79.8 79.8C9.803 148.168 0 184.854 0 224.63c0 47.78 13.94 90.745 41.827 128.906 27.884 38.164 63.906 64.572 108.063 79.227 5.14.954 8.945.283 11.419-1.996 2.475-2.282 3.711-5.14 3.711-8.562 0-.571-.049-5.708-.144-15.417a2549.81 2549.81 0 0 1-.144-25.406l-6.567 1.136c-4.187.767-9.469 1.092-15.846 1-6.374-.089-12.991-.757-19.842-1.999-6.854-1.231-13.229-4.086-19.13-8.559-5.898-4.473-10.085-10.328-12.56-17.556l-2.855-6.57c-1.903-4.374-4.899-9.233-8.992-14.559-4.093-5.331-8.232-8.945-12.419-10.848l-1.999-1.431c-1.332-.951-2.568-2.098-3.711-3.429-1.142-1.331-1.997-2.663-2.568-3.997-.572-1.335-.098-2.43 1.427-3.289 1.525-.859 4.281-1.276 8.28-1.276l5.708.853c3.807.763 8.516 3.042 14.133 6.851 5.614 3.806 10.229 8.754 13.846 14.842 4.38 7.806 9.657 13.754 15.846 17.847 6.184 4.093 12.419 6.136 18.699 6.136 6.28 0 11.704-.476 16.274-1.423 4.565-.952 8.848-2.383 12.847-4.285 1.713-12.758 6.377-22.559 13.988-29.41-10.848-1.14-20.601-2.857-29.264-5.14-8.658-2.286-17.605-5.996-26.835-11.14-9.235-5.137-16.896-11.516-22.985-19.126-6.09-7.614-11.088-17.61-14.987-29.979-3.901-12.374-5.852-26.648-5.852-42.826 0-23.035 7.52-42.637 22.557-58.817-7.044-17.318-6.379-36.732 1.997-58.24 5.52-1.715 13.706-.428 24.554 3.853 10.85 4.283 18.794 7.952 23.84 10.994 5.046 3.041 9.089 5.618 12.135 7.708 17.705-4.947 35.976-7.421 54.818-7.421s37.117 2.474 54.823 7.421l10.849-6.849c7.419-4.57 16.18-8.758 26.262-12.565 10.088-3.805 17.802-4.853 23.134-3.138 8.562 21.509 9.325 40.922 2.279 58.24 15.036 16.18 22.559 35.787 22.559 58.817 0 16.178-1.958 30.497-5.853 42.966-3.9 12.471-8.941 22.457-15.125 29.979-6.191 7.521-13.901 13.85-23.131 18.986-9.232 5.14-18.182 8.85-26.84 11.136-8.662 2.286-18.415 4.004-29.263 5.146 9.894 8.562 14.842 22.077 14.842 40.539v60.237c0 3.422 1.19 6.279 3.572 8.562 2.379 2.279 6.136 2.95 11.276 1.995 44.163-14.653 80.185-41.062 108.068-79.226 27.88-38.161 41.825-81.126 41.825-128.906-.01-39.771-9.818-76.454-29.414-110.049z" data-original="#000000" class="eactive-path" data-old_color="#000000" fill="#574C45"/></svg><svg viewBox="-1 -1 488.39 488.39" width="27" height="27" id="contact-icons--linkedin-button" x="203" y="204" xmlns="http://www.w3.org/2000/svg"><path d="M243.196 0C108.891 0 0 108.891 0 243.196s108.891 243.196 243.196 243.196 243.196-108.891 243.196-243.196C486.392 108.861 377.501 0 243.196 0zm-60.799 360.994h-60.799V148.197h60.799v212.797zm-28.515-225.838c-15.747 0-28.484-12.768-28.484-28.515s12.768-28.515 28.484-28.515c15.747.03 28.515 12.798 28.515 28.515 0 15.747-12.768 28.515-28.515 28.515zm241.311 225.838h-60.799V229.425c0-15.413-4.408-26.204-23.347-26.204-31.403 0-37.452 26.204-37.452 26.204v131.569h-60.799V148.197h60.799v20.337c8.694-6.657 30.399-20.307 60.799-20.307 19.699 0 60.799 11.795 60.799 83.051v129.716z" data-original="#010002" class="factive-path" data-old_color="#010002" fill="#574C45"/></svg><svg width="44" height="44" viewBox="-1 -1 37 37" id="contact-icons--smartphone-call" x="88" y="204" xmlns="http://www.w3.org/2000/svg"><path d="M25.302 0H9.698a2.37 2.37 0 0 0-2.364 2.364v30.271A2.371 2.371 0 0 0 9.698 35h15.604a2.37 2.37 0 0 0 2.364-2.364V2.364A2.37 2.37 0 0 0 25.302 0zM15.004 1.704h4.992a.286.286 0 0 1 0 .573h-4.992a.286.286 0 1 1 0-.573zM17.5 33.818a1.182 1.182 0 1 1 0-2.364 1.182 1.182 0 0 1 0 2.364zm8.521-3.193H8.979V3.749h17.042v26.876z" data-original="#000000" class="gactive-path" data-old_color="#000000" fill="#574C45"/></svg><svg viewBox="-1 -1 488.39 488.39" width="44" height="44" id="contact-icons--social-buttons-skype" x="44" y="204" xmlns="http://www.w3.org/2000/svg"><path d="M463.258 274.522c1.368-9.88 2.128-19.942 2.128-30.156 0-122.692-100.045-222.19-223.406-222.19a222.275 222.275 0 0 0-35.963 2.918C185.041 11.414 160.083 3.48 133.241 3.48 59.613 3.481 0 63.185 0 136.782c0 26.782 7.873 51.679 21.462 72.564a221.897 221.897 0 0 0-2.766 35.02c0 122.723 99.953 222.19 223.315 222.19 13.923 0 27.481-1.368 40.644-3.739 20.459 12.707 44.626 20.094 70.436 20.094 73.658 0 133.302-59.674 133.302-133.302.029-27.815-8.453-53.716-23.135-75.087zM262.925 408.098c-70.983 3.709-104.179-12.038-134.609-40.553-33.987-31.889-20.337-68.247 7.357-70.101 27.664-1.854 44.262 31.342 59.036 40.583 14.744 9.211 70.861 30.187 100.501-3.709 32.284-36.875-21.462-55.965-60.86-61.741-56.239-8.299-127.252-38.729-121.719-98.707 5.533-59.887 50.889-90.651 98.646-94.968 60.86-5.533 100.501 9.211 131.842 35.963 36.236 30.916 16.629 65.45-6.445 68.216-23.043 2.766-48.822-50.828-99.558-51.618-52.287-.821-87.611 54.415-23.073 70.101 64.568 15.686 133.666 22.131 158.624 81.136 24.928 59.005-38.729 121.689-109.742 125.398z" data-original="#090509" class="hactive-path" data-old_color="#090509" fill="#574C45"/></svg><svg width="66" height="66" viewBox="-1 -1 66 66" id="design-tools" x="132" y="138" xmlns="http://www.w3.org/2000/svg"><path d="M6.752 180.672c-27.104 27.136-21.312 65.344.256 86.88.864.832 87.488 83.584 209.312 205.408 3.136 3.136 7.232 4.672 11.328 4.672s8.192-1.568 11.328-4.672c6.24-6.24 6.24-16.384 0-22.624a18958.96 18958.96 0 0 0-52.416-52.192l50.848-50.848c6.24-6.24 6.24-16.384 0-22.624s-16.384-6.24-22.624 0l-50.976 50.976a15940.829 15940.829 0 0 0-74.08-72.672l115.68-115.68c6.24-6.24 6.24-16.384 0-22.624s-16.384-6.24-22.624 0L66.752 280.704c-23.552-22.816-37.12-35.776-37.344-36-6.752-6.752-15.616-25.76 0-41.376l160-160c6.176-6.272 22.624-18.72 40.672-.768.8.896 81.6 92.672 204.928 216 6.24 6.24 16.384 6.24 22.624 0s6.24-16.384 0-22.624C335.072 113.408 254.88 22.336 253.408 20.672c-29.824-29.76-65.792-20.832-86.624 0l-160.032 160zm678.656 592c-6.24-6.24-16.384-6.24-22.624 0l-50.912 50.88c-15.52-15.712-31.808-32.16-48.96-49.312-6.24-6.24-16.384-6.24-22.624 0s-6.24 16.384 0 22.624C658.816 915.36 741.6 1003.872 742.784 1005.152c10.976 11.008 26.016 17.056 42.336 17.056 16.8 0 33.792-6.56 44.32-17.12l159.936-161.824c20.128-20.128 21.28-54.272 2.496-73.12L777.28 555.584c-6.24-6.24-16.384-6.24-22.624 0s-6.24 16.384 0 22.624l214.592 214.56c6.4 6.4 5.184 20.224-2.528 27.936L806.752 982.528c-3.68 3.712-12.032 7.68-21.632 7.68-5.504 0-13.376-1.344-19.328-7.328-.32-.352-13.728-14.656-36.992-39.008l116.608-116.608c6.24-6.24 6.24-16.384 0-22.624s-16.384-6.24-22.624 0L706.656 920.768a10515.805 10515.805 0 0 0-72.32-74.432l51.072-51.072c6.24-6.208 6.24-16.32 0-22.592zM-9.376 1018.528c3.072 3.136 7.2 4.8 11.456 4.8 1.536 0 3.072-.224 4.576-.672l320-95.328a15.694 15.694 0 0 0 6.784-4.064l546.88-550.56c.768-.768 1.152-1.76 1.728-2.624L999.04 253.088c9.408-9.44 14.624-21.952 14.624-35.296 0-13.312-5.216-25.824-14.624-35.2L831.52 15.104c-18.816-18.816-51.68-18.816-70.496 0L641.376 134.752c-.768.768-1.184 1.76-1.76 2.656L91.904 685.152A15.841 15.841 0 0 0 88 691.52L-13.12 1002.4c-1.856 5.664-.416 11.84 3.744 16.128zM653.6 168.672l33.248 33.248L190.112 700l-55.264-12.544L653.6 168.672zm-443.52 556.64l499.424-500.736 77.952 77.952L283.52 800h-73.44v-74.688zm636.288-363.84L326.56 884.8l-18.464-64.064L810.08 325.152l36.288 36.32zM113.856 715.488l64.224 14.592V816c0 8.832 7.168 16 16 16h83.968l20.288 70.4L26.72 983.328l87.136-267.84zM783.68 37.728c6.752-6.752 18.496-6.752 25.248 0l167.52 167.52a17.717 17.717 0 0 1 5.216 12.608c0 4.736-1.856 9.248-5.248 12.64L868.544 338.4 675.808 145.664 783.68 37.728z"/></svg><svg width="44" height="44" viewBox="-1 -1 1801.99 1702.01" shape-rendering="geometricPrecision" text-rendering="geometricPrecision" image-rendering="optimizeQuality" fill-rule="evenodd" clip-rule="evenodd" id="flag" y="204" xmlns="http://www.w3.org/2000/svg"><path d="M1792.6 358.41c-933.9 1356.8-614.2-25.99-1403.7 635.7l179.5 705.9H366.5L0 259.01l185-66.4c884.9-647.1 422.8 582 1563.7 125.4 36.4-14.7 65.5 9 43.9 40.4z" fill="#fff"/></svg><svg viewBox="-1 -1 440 440" width="27" height="27" id="magnifying-glass" x="176" y="204" xmlns="http://www.w3.org/2000/svg"><path d="M279.25 0c-86 0-156 70-156 156 0 36 11 69 31 95l-145 145c-10 10-10 25 0 35 5 5 11 7 17 7s13-2 18-7l146-146c25 18 56 28 89 28 86 0 157-71 157-157s-71-156-157-156zm0 269c-62 0-113-51-113-113s51-113 113-113 113 51 113 113-51 113-113 113z" data-original="#010002" class="kactive-path" data-old_color="#010002" fill="#574C45"/><path d="M311.25 78c-11-5-23 0-28 11s0 24 11 29c1 1 27 13 24 35-2 13 8 25 22 25 11 0 20-8 21-19 6-44-29-72-50-81zm-5 110c-12 0-22 10-22 22s10 21 22 21 22-9 22-21-10-22-22-22z" data-original="#010002" class="kactive-path" data-old_color="#010002" fill="#574C45"/></svg><svg width="74" height="72" viewBox="-1 -1 21.85 21.37" shape-rendering="geometricPrecision" text-rendering="geometricPrecision" image-rendering="optimizeQuality" fill-rule="evenodd" clip-rule="evenodd" id="nikola-logo" xmlns="http://www.w3.org/2000/svg"><path d="M1.81 14.04a1.775 1.775 0 0 1 0 3.55 1.775 1.775 0 1 1 0-3.55zM.03 11.02h3.56v4.9H.03v-4.9zm4.9-1.39h3.59v5.39c0 .55.22.82.67.82.44 0 .66-.27.66-.82l.01-1.75h3.58v1.68c0 1.24-.41 2.29-1.24 3.14-.82.85-1.83 1.28-3.02 1.28-1.36 0-2.46-.49-3.28-1.48-.64-.78-.97-1.85-.97-3.23V9.63zm8.51 3.64H9.86V5.31c0-1.47.38-2.66 1.15-3.58.44-.52 1-.95 1.68-1.26.68-.31 1.38-.47 2.09-.47 1.43 0 2.63.48 3.6 1.44.98.95 1.47 2.13 1.47 3.52 0 1.35-.49 2.52-1.46 3.5-.97.99-2.11 1.48-3.44 1.48-.22 0-.54-.02-.96-.07V5.93c.3.23.59.34.88.34.38 0 .69-.14.96-.41.26-.27.4-.6.4-.97 0-.38-.14-.7-.42-.97-.27-.26-.6-.39-.99-.39-.92 0-1.38.63-1.38 1.91v7.83zM8.52 9.63H4.93L4.92 6.1c0-.54-.22-.82-.67-.82-.44 0-.66.28-.66.82v4.92H.03L0 6.17c-.01-1.24.41-2.29 1.23-3.14.83-.85 1.83-1.28 3.03-1.28 1.36 0 2.46.5 3.28 1.49.64.77.96 1.84.97 3.22l.01 3.17z" fill="#fff" fill-rule="nonzero"/></svg><svg width="66" height="66" viewBox="-1 -1 66 66" id="paint-brush" x="206" y="66" xmlns="http://www.w3.org/2000/svg"><path d="M403.75 0c22.75 0 43.75 17 43.75 40.75 0 13.25-5.25 26-11.25 37.75-19.5 37-85 159.25-116.25 188-15.25 14.25-33.25 22.75-54.5 22.75-42.25 0-76.75-36-76.75-78 0-20 8.25-39.5 23-53L371.25 13.5C380 5.5 391.5 0 403.75 0zM176.5 258.5c13 25.25 36.75 44.25 64.25 51.5l.25 17.75C242.5 399 193 448 121.5 448 36.75 448 0 380.5 0 303.75c9.25 6.25 41.5 32 52 32 6.25 0 11.5-3.5 13.75-9.25C87 271 120.25 261 176.5 258.5z"/></svg><svg viewBox="-1 -1 322 322" width="66" height="66" id="pc-settings" x="206" xmlns="http://www.w3.org/2000/svg"><path d="M292.697 19.995H27.303C12.223 19.995 0 32.219 0 47.299v163.822c0 15.079 12.223 27.304 27.303 27.304H133.79v24.7h-21.544c-10.185 0-18.439 8.255-18.439 18.44 0 10.184 8.255 18.44 18.439 18.44h95.508c10.186 0 18.44-8.256 18.44-18.44 0-10.185-8.254-18.44-18.44-18.44H186.21v-24.7h106.487c15.08 0 27.303-12.225 27.303-27.304V47.299c0-15.08-12.223-27.304-27.303-27.304zM32.181 179.96c0-14.4 11.715-26.116 26.115-26.116 14.401 0 26.115 11.716 26.115 26.116s-11.713 26.116-26.115 26.116c-14.4 0-26.115-11.716-26.115-26.116zm256.147 26.792H127.579a4.86 4.86 0 0 0-1.292-5.409l-10.479-9.308a58.822 58.822 0 0 0 1.251-12.075 58.78 58.78 0 0 0-1.253-12.085l10.478-9.305a4.867 4.867 0 0 0 .983-6.072l-10.706-18.544a4.866 4.866 0 0 0-5.75-2.184l-13.338 4.434a58.762 58.762 0 0 0-20.884-12.086l-2.821-13.73a4.868 4.868 0 0 0-4.769-3.887H47.586a4.869 4.869 0 0 0-4.768 3.887l-2.82 13.733a58.493 58.493 0 0 0-8.326 3.484V51.667h256.655v155.085z" data-original="#000000" class="nactive-path" data-old_color="#822929" fill="#574C45"/><path d="M143.873 127.778a2.868 2.868 0 0 0-3.389 1.288l-6.312 10.931a2.871 2.871 0 0 0 .579 3.578l6.177 5.486a34.62 34.62 0 0 0-.737 7.116c0 2.441.256 4.823.739 7.123l-6.176 5.484a2.87 2.87 0 0 0-.58 3.579l6.311 10.93a2.867 2.867 0 0 0 3.388 1.287l7.861-2.613a34.658 34.658 0 0 0 12.31 7.124l1.663 8.093a2.87 2.87 0 0 0 2.811 2.289h12.62a2.868 2.868 0 0 0 2.81-2.289l1.663-8.095a34.659 34.659 0 0 0 12.309-7.126l7.859 2.613a2.871 2.871 0 0 0 3.389-1.288l6.311-10.93a2.871 2.871 0 0 0-.58-3.579l-6.177-5.486a34.644 34.644 0 0 0-.001-14.239l6.175-5.484a2.87 2.87 0 0 0 .579-3.58l-6.31-10.929a2.866 2.866 0 0 0-3.389-1.287l-7.861 2.613a34.645 34.645 0 0 0-12.311-7.123l-1.663-8.093a2.868 2.868 0 0 0-2.809-2.291h-12.621a2.87 2.87 0 0 0-2.81 2.291l-1.663 8.095a34.635 34.635 0 0 0-12.309 7.126l-7.856-2.614zm30.954 13.007c8.487 0 15.392 6.905 15.392 15.393s-6.905 15.394-15.392 15.394c-8.487 0-15.394-6.905-15.394-15.394.001-8.488 6.907-15.393 15.394-15.393zm-70.139-48.847a23.763 23.763 0 0 0 .001 9.76l-4.232 3.758a1.967 1.967 0 0 0-.396 2.453l4.326 7.492a1.964 1.964 0 0 0 2.322.882l5.388-1.792a23.75 23.75 0 0 0 8.436 4.884l1.14 5.546a1.967 1.967 0 0 0 1.925 1.569h8.651a1.965 1.965 0 0 0 1.925-1.569l1.141-5.548a23.752 23.752 0 0 0 8.436-4.884l5.387 1.792a1.966 1.966 0 0 0 2.322-.883l4.326-7.491a1.97 1.97 0 0 0-.397-2.453l-4.233-3.76a23.755 23.755 0 0 0-.001-9.76l4.232-3.759a1.97 1.97 0 0 0 .398-2.453l-4.326-7.491a1.965 1.965 0 0 0-2.322-.883l-5.388 1.791a23.752 23.752 0 0 0-8.437-4.883l-1.14-5.547a1.966 1.966 0 0 0-1.925-1.57h-8.65c-.934 0-1.738.656-1.926 1.57l-1.14 5.549a23.726 23.726 0 0 0-8.435 4.883l-5.388-1.792a1.967 1.967 0 0 0-2.322.883l-4.325 7.491c-.467.808-.3 1.833.396 2.452l4.231 3.763zm23.234-5.673c5.816 0 10.549 4.732 10.549 10.55 0 5.818-4.732 10.549-10.549 10.549s-10.55-4.731-10.55-10.549c0-5.817 4.733-10.55 10.55-10.55z" data-original="#000000" class="nactive-path" data-old_color="#822929" fill="#574C45"/></svg><svg width="66" height="66" viewBox="-1 -1 398.49 398.49" id="responsive-design-symbol" x="66" y="138" xmlns="http://www.w3.org/2000/svg"><path d="M304.42 330.901h-43.219a2.84 2.84 0 0 1-2.834-2.834v-10.52a2.842 2.842 0 0 0-2.834-2.834h-60.475a2.842 2.842 0 0 0-2.835 2.834v10.52a2.84 2.84 0 0 1-2.835 2.834h-32.491a2.842 2.842 0 0 0-2.835 2.834v12.17a2.842 2.842 0 0 0 2.835 2.834h147.521a2.842 2.842 0 0 0 2.834-2.834v-12.17a2.84 2.84 0 0 0-2.832-2.834zm72.612-284.533h-308.4c-10.73 0-19.459 8.73-19.459 19.462v50.761c0 6.711-.498 7.66 4.004 7.66h7.72c3.778 0 3.003-.949 3.003-7.785V65.83c0-2.565 2.168-4.733 4.732-4.733h308.4c2.563 0 4.731 2.168 4.731 4.733v189.999h-219.87s-7.749-.014-7.749 10.006v23.766c0 10.006 8 10.006 8 10.006h214.888c10.729 0 19.461-8.729 19.461-19.459V65.83c0-10.731-8.73-19.462-19.461-19.462zM222.833 282.804a8.77 8.77 0 1 1-.004-17.538 8.77 8.77 0 0 1 .004 17.538z" data-original="#000000" class="oactive-path" data-old_color="#4BD789" fill="#574C45"/><path d="M124.125 141.633H12.559C5.632 141.633 0 147.266 0 154.193v183.372c0 6.926 5.632 12.561 12.559 12.561h111.566c6.923 0 12.559-5.635 12.559-12.561V154.193c0-6.927-5.636-12.56-12.559-12.56zm-69.545 12.81h27.523a2.38 2.38 0 0 1 0 4.76H54.58a2.378 2.378 0 0 1-2.379-2.379 2.378 2.378 0 0 1 2.379-2.381zm13.595 186.861a6.5 6.5 0 1 1 0-13 6.5 6.5 0 0 1 0 13zm57.718-19.104c0 1.676-1.342 3.047-2.98 3.047H13.774c-1.639 0-2.98-1.371-2.98-3.047V169.825c0-1.676 1.342-3.046 2.98-3.046h109.139c1.639 0 2.98 1.371 2.98 3.046V322.2z" data-original="#000000" class="oactive-path" data-old_color="#4BD789" fill="#574C45"/></svg><svg viewBox="-1 -1 234.69 234.69" width="66" height="66" id="skills" y="138" xmlns="http://www.w3.org/2000/svg"><path d="M97.688 61.344h120c8.284 0 15-6.716 15-15s-6.716-15-15-15h-120c-8.284 0-15 6.716-15 15s6.715 15 15 15zm120 40h-120c-8.284 0-15 6.716-15 15s6.716 15 15 15h120c8.284 0 15-6.716 15-15s-6.716-15-15-15zm0 70h-120c-8.284 0-15 6.716-15 15 0 8.284 6.716 15 15 15h120c8.284 0 15-6.716 15-15 0-8.284-6.716-15-15-15zM48.785 104.408l-9.989-1.452-4.467-9.052a7.5 7.5 0 0 0-13.452 0l-4.468 9.052-9.988 1.452A7.5 7.5 0 0 0 2.263 117.2l7.228 7.045-1.707 9.949a7.5 7.5 0 0 0 10.881 7.908l8.936-4.698 8.936 4.698a7.493 7.493 0 0 0 3.489.861h.021a7.5 7.5 0 0 0 7.276-9.325l-1.612-9.393 7.228-7.045a7.499 7.499 0 0 0-4.154-12.792zm0-70l-9.989-1.452-4.467-9.052a7.5 7.5 0 0 0-13.452 0l-4.468 9.052-9.988 1.452A7.5 7.5 0 0 0 2.263 47.2l7.228 7.045-1.707 9.949a7.5 7.5 0 0 0 10.881 7.908l8.936-4.698 8.936 4.698a7.493 7.493 0 0 0 3.489.861h.021a7.5 7.5 0 0 0 7.499-7.5 7.52 7.52 0 0 0-.223-1.825l-1.612-9.393 7.228-7.045a7.499 7.499 0 0 0-4.154-12.792zm0 140l-9.989-1.452-4.467-9.052a7.5 7.5 0 0 0-13.452 0l-4.468 9.052-9.988 1.452A7.5 7.5 0 0 0 2.263 187.2l7.228 7.045-1.707 9.949a7.5 7.5 0 0 0 10.881 7.908l8.936-4.698 8.936 4.698a7.493 7.493 0 0 0 3.489.861h.021a7.5 7.5 0 0 0 7.276-9.325l-1.612-9.393 7.228-7.045a7.499 7.499 0 0 0-4.154-12.792z" fill="#FFF"/></svg><svg width="66" height="66" viewBox="-1 -1 512 512" id="tick-inside-circle" x="140" y="66" xmlns="http://www.w3.org/2000/svg"><path d="M150.45 206.55l-35.7 35.7L229.5 357l255-255-35.7-35.7-219.3 219.3-79.05-79.05zM459 255c0 112.2-91.8 204-204 204S51 367.2 51 255 142.8 51 255 51c20.4 0 38.25 2.55 56.1 7.65l40.801-40.8C321.3 7.65 288.15 0 255 0 114.75 0 0 114.75 0 255s114.75 255 255 255 255-114.75 255-255h-51z" data-original="#000000" class="qactive-path" data-old_color="#000000" fill="#574C45"/></svg><svg width="66" height="66" viewBox="-1 -1 66 66" id="tools" x="140" xmlns="http://www.w3.org/2000/svg"><path d="M100.32 220.48c29.856-23.2 54.624-7.2 87.68 31.072 3.712 4.32 8.704-.736 11.552-3.2 2.816-2.496 46.432-41.76 48.576-43.552 2.112-1.888 4.672-5.408 1.312-9.344-3.424-3.936-15.808-20-23.776-30.432-57.856-75.68 158.272-127.008 125.088-127.808-16.896-.448-84.672-1.248-94.816-.128-41.056 4.32-92.608 42.688-118.56 60.576-33.952 23.232-46.624 36.864-48.704 38.752-9.6 8.384-1.536 27.744-18.944 43.008-18.4 16.096-29.888 3.904-40.544 13.248-5.28 4.672-20.064 15.744-24.288 19.424-4.256 3.744-5.024 10.048-.672 15.072 0 0 40.448 44.672 43.84 48.64 3.36 3.904 12.512 7.296 18.144 2.272 5.664-4.992 20.224-17.696 22.656-19.936 2.496-2.112-1.6-27.552 11.456-37.664zm182.656 16.544c-3.84-4.448-8.608-4.576-12.704-.928l-45.888 40.064c-3.616 3.2-4.128 9.056-.864 12.8l265.408 302.048c6.208 7.136 16.96 7.872 24.032 1.696L544 566.688c7.104-6.24 7.84-17.056 1.664-24.256L282.976 237.024zM636.864 108.48c-2.368-15.808-10.56-12.512-14.816-5.824-4.256 6.752-23.072 35.264-30.816 48.192-7.68 12.8-26.624 38.112-61.888 13.12-36.736-25.952-23.968-44.064-17.568-56.256 6.432-12.256 26.176-46.624 29.024-50.88 2.848-4.32-.48-16.864-11.872-11.616-11.424 5.248-80.736 32.8-90.336 72.32-9.824 40.192 8.224 76.128-27.2 111.808l-42.976 44.8 43.168 50.112 52.928-50.24c12.608-12.672 39.552-24.992 63.936-19.424 52.256 11.808 80.768-7.808 97.952-40.256 15.424-28.992 12.864-90.048 10.464-105.856zM87.648 545.696c-6.656 6.688-6.656 17.568 0 24.256l30.432 29.76c6.656 6.688 17.216 3.872 23.872-2.816l157.024-154.368-48.096-54.848L87.648 545.696z"/></svg><svg width="66" height="66" viewBox="-1 -1 793.96 793.96" id="trash-can" x="66" y="72" xmlns="http://www.w3.org/2000/svg"><path d="M585.82 235.876H209.179c-39.621 0-71.728 32.082-71.728 71.703l38.865 412.675c0 39.597 32.131 71.703 71.751 71.703h304.89c39.62 0 71.751-32.106 71.751-71.703l32.888-412.675c-.049-39.621-32.155-71.703-71.776-71.703zM301.839 666.41c0 19.786-16.053 35.814-35.864 35.814-19.81 0-35.863-16.053-35.863-35.814V343.467c0-19.786 16.053-35.888 35.863-35.888 19.811 0 35.864 16.102 35.864 35.888V666.41zm125.546 0c0 19.786-16.053 35.814-35.863 35.814s-35.863-16.053-35.863-35.814V343.467c0-19.786 16.053-35.888 35.863-35.888 19.811 0 35.863 16.102 35.863 35.888V666.41zm125.548 0c0 19.786-16.054 35.814-35.864 35.814s-35.863-16.053-35.863-35.814V343.467c0-19.786 16.053-35.888 35.863-35.888s35.864 16.102 35.864 35.888V666.41zM190.027 200.013L624.27 88.299c23.981-6.148 38.425-30.594 32.252-54.576-6.172-23.982-30.618-38.425-54.6-32.326L468.446 35.748c-12.369-18.347-35.205-27.983-57.845-22.177l-52.088 13.443c-22.641 5.831-37.986 25.275-39.987 47.306l-150.847 38.84c-23.982 6.148-38.401 30.594-32.253 54.576 6.173 24.006 30.619 38.4 54.601 32.277z" data-original="#000000" class="sactive-path" data-old_color="#000000" fill="#574C45"/></svg><svg viewBox="-1 -1 78 78" width="66" height="66" id="two-quotes" y="72" xmlns="http://www.w3.org/2000/svg"><path d="M14.579 5C6.527 5 0 11.716 0 20c0 8.285 6.527 15 14.579 15C29.157 35 19.438 64 0 64v7C34.69 71 48.286 5 14.579 5zm42 0C48.527 5 42 11.716 42 20c0 8.285 6.527 15 14.579 15C71.157 35 61.438 64 42 64v7C76.69 71 90.286 5 56.579 5z" fill="#FFF"/></svg><svg viewBox="-1 -1 78 78" width="27" height="27" id="two-quotes-small" x="272" y="27" xmlns="http://www.w3.org/2000/svg"><path d="M14.579 5C6.527 5 0 11.716 0 20c0 8.285 6.527 15 14.579 15C29.157 35 19.438 64 0 64v7C34.69 71 48.286 5 14.579 5zm42 0C48.527 5 42 11.716 42 20c0 8.285 6.527 15 14.579 15C71.157 35 61.438 64 42 64v7C76.69 71 90.286 5 56.579 5z" fill="#FFF"/></svg><svg viewBox="-1 -1 331.53 331.53" width="66" height="66" id="write" x="74" xmlns="http://www.w3.org/2000/svg"><path d="M242.712 18.778c-4.296-4.296-4.296-11.261 0-15.557 4.296-4.295 11.26-4.295 15.556 0l42.589 42.587c4.296 4.296 4.296 11.261 0 15.557a10.97 10.97 0 0 1-7.778 3.222c-2.815 0-5.63-1.074-7.778-3.222l-42.589-42.587zm63.481 288.753H23.338c-6.075 0-11 4.925-11 11s4.925 11 11 11h282.854c6.075 0 11-4.925 11-11s-4.924-11-10.999-11zM28.675 275.405a10.998 10.998 0 0 1-2.861-10.573l15.176-57.767a11.003 11.003 0 0 1 2.861-4.983l169.027-169.03c4.296-4.295 11.26-4.295 15.556 0l42.591 42.589a10.998 10.998 0 0 1 0 15.556L101.997 260.225a11 11 0 0 1-4.982 2.86l-57.766 15.18a10.996 10.996 0 0 1-10.574-2.86zM51.879 252.2l36.666-9.636L247.691 83.419l-27.034-27.032L61.512 215.534 51.879 252.2z" data-original="#000000" class="vactive-path" data-old_color="#7B4747" fill="#574C45"/></svg></svg>