<?xml version="1.0" encoding="utf-8"?><svg width="450" height="442" viewBox="0 0 450 442" xmlns="http://www.w3.org/2000/svg" xmlns:xlink="http://www.w3.org/1999/xlink"><svg width="25" height="25" viewBox="0 0 511.634 511.634" id="calendar-with-spring-binder-and-date-blocks" x="206" y="378" xmlns="http://www.w3.org/2000/svg"><path d="M482.513 83.942c-7.225-7.233-15.797-10.85-25.694-10.85h-36.541v-27.41c0-12.56-4.477-23.315-13.422-32.261C397.906 4.475 387.157 0 374.591 0h-18.268c-12.565 0-23.318 4.475-32.264 13.422-8.949 8.945-13.422 19.701-13.422 32.261v27.41h-109.63v-27.41c0-12.56-4.475-23.315-13.422-32.261C178.64 4.475 167.886 0 155.321 0H137.05c-12.562 0-23.317 4.475-32.264 13.422-8.945 8.945-13.421 19.701-13.421 32.261v27.41H54.823c-9.9 0-18.464 3.617-25.697 10.85-7.233 7.232-10.85 15.8-10.85 25.697v365.453c0 9.89 3.617 18.456 10.85 25.693 7.232 7.231 15.796 10.849 25.697 10.849h401.989c9.897 0 18.47-3.617 25.694-10.849 7.234-7.234 10.852-15.804 10.852-25.693V109.639c-.001-9.9-3.615-18.464-10.845-25.697zM137.047 475.088H54.823v-82.23h82.224v82.23zm0-100.498H54.823v-91.358h82.224v91.358zm0-109.639H54.823v-82.223h82.224v82.223zm-6.42-130.618c-1.809-1.809-2.712-3.946-2.712-6.423V45.686c0-2.474.903-4.617 2.712-6.423 1.809-1.809 3.946-2.712 6.423-2.712h18.271c2.474 0 4.617.903 6.423 2.712 1.809 1.807 2.714 3.949 2.714 6.423v82.224c0 2.478-.909 4.615-2.714 6.423-1.807 1.809-3.946 2.712-6.423 2.712H137.05c-2.474.001-4.614-.903-6.423-2.712zm116.056 340.755h-91.365v-82.23h91.365v82.23zm0-100.498h-91.365v-91.358h91.365v91.358zm0-109.639h-91.365v-82.223h91.365v82.223zm109.64 210.137h-91.364v-82.23h91.364v82.23zm0-100.498h-91.364v-91.358h91.364v91.358zm0-109.639h-91.364v-82.223h91.364v82.223zm-6.427-130.618c-1.807-1.809-2.707-3.946-2.707-6.423V45.686c0-2.474.9-4.617 2.707-6.423 1.808-1.809 3.949-2.712 6.427-2.712h18.268c2.478 0 4.617.903 6.427 2.712 1.808 1.807 2.707 3.949 2.707 6.423v82.224c0 2.478-.903 4.615-2.707 6.423-1.807 1.809-3.949 2.712-6.427 2.712h-18.268c-2.477.001-4.626-.903-6.427-2.712zm106.916 340.755h-82.228v-82.23h82.228v82.23zm0-100.498h-82.228v-91.358h82.228v91.358zm0-109.639h-82.228v-82.223h82.228v82.223z" data-original="#000000" class="aaactive-path" data-old_color="#000000" fill="#574C45"/></svg><svg width="64" height="64" viewBox="0 0 97.619 97.618" id="checkmark-for-verification" x="256" y="314" xmlns="http://www.w3.org/2000/svg"><path d="M96.939 17.358L83.968 5.959a1.99 1.99 0 0 0-1.449-.494 2.002 2.002 0 0 0-1.373.677L34.1 59.688 17.372 37.547a1.995 1.995 0 0 0-1.319-.773 1.972 1.972 0 0 0-1.481.385L.794 47.567a2 2 0 0 0-.39 2.801l30.974 40.996c.362.479.922.771 1.522.793h.073c.574 0 1.122-.246 1.503-.68L97.12 20.18a1.998 1.998 0 0 0-.181-2.822z" data-original="#000000" class="abactive-path" data-old_color="#4CD78A" fill="#4BD789"/></svg><svg width="42" height="42" viewBox="0 0 511.626 511.626" id="contact-icons--envelope" x="64" y="378" xmlns="http://www.w3.org/2000/svg"><path d="M49.106 178.729c6.472 4.567 25.981 18.131 58.528 40.685 32.548 22.554 57.482 39.92 74.803 52.099 1.903 1.335 5.946 4.237 12.131 8.71 6.186 4.476 11.326 8.093 15.416 10.852 4.093 2.758 9.041 5.852 14.849 9.277 5.806 3.422 11.279 5.996 16.418 7.7 5.14 1.718 9.898 2.569 14.275 2.569h.575c4.377 0 9.137-.852 14.277-2.569 5.137-1.704 10.615-4.281 16.416-7.7 5.804-3.429 10.752-6.52 14.845-9.277 4.093-2.759 9.229-6.376 15.417-10.852 6.184-4.477 10.232-7.375 12.135-8.71 17.508-12.179 62.051-43.11 133.615-92.79 13.894-9.703 25.502-21.411 34.827-35.116 9.332-13.699 13.993-28.07 13.993-43.105 0-12.564-4.523-23.319-13.565-32.264-9.041-8.947-19.749-13.418-32.117-13.418H45.679c-14.655 0-25.933 4.948-33.832 14.844C3.949 79.562 0 91.934 0 106.779c0 11.991 5.236 24.985 15.703 38.974 10.466 13.99 21.604 24.983 33.403 32.976z" data-original="#000000" class="acactive-path" data-old_color="#000000" fill="#574C45"/><path d="M483.072 209.275c-62.424 42.251-109.824 75.087-142.177 98.501-10.849 7.991-19.65 14.229-26.409 18.699-6.759 4.473-15.748 9.041-26.98 13.702-11.228 4.668-21.692 6.995-31.401 6.995h-.578c-9.707 0-20.177-2.327-31.405-6.995-11.228-4.661-20.223-9.229-26.98-13.702-6.755-4.47-15.559-10.708-26.407-18.699-25.697-18.842-72.995-51.68-141.896-98.501C17.987 202.047 8.375 193.762 0 184.437v226.685c0 12.57 4.471 23.319 13.418 32.265 8.945 8.949 19.701 13.422 32.264 13.422h420.266c12.56 0 23.315-4.473 32.261-13.422 8.949-8.949 13.418-19.694 13.418-32.265V184.437c-8.186 9.132-17.7 17.417-28.555 24.838z" data-original="#000000" class="acactive-path" data-old_color="#000000" fill="#574C45"/></svg><svg width="25" height="25" viewBox="0 0 49.652 49.652" id="contact-icons--facebook-logo-button" x="156" y="378" xmlns="http://www.w3.org/2000/svg"><path d="M24.826 0C11.137 0 0 11.137 0 24.826c0 13.688 11.137 24.826 24.826 24.826 13.688 0 24.826-11.138 24.826-24.826C49.652 11.137 38.516 0 24.826 0zM31 25.7h-4.039v14.396h-5.985V25.7h-2.845v-5.088h2.845v-3.291c0-2.357 1.12-6.04 6.04-6.04l4.435.017v4.939h-3.219c-.524 0-1.269.262-1.269 1.386v2.99h4.56L31 25.7z" data-original="#000000" class="adactive-path" data-old_color="#000000" fill="#574C45"/></svg><svg width="25" height="25" viewBox="0 0 438.549 438.549" id="contact-icons--github-logo" x="131" y="378" xmlns="http://www.w3.org/2000/svg"><path d="M409.132 114.573c-19.608-33.596-46.205-60.194-79.798-79.8-33.598-19.607-70.277-29.408-110.063-29.408-39.781 0-76.472 9.804-110.063 29.408-33.596 19.605-60.192 46.204-79.8 79.8C9.803 148.168 0 184.854 0 224.63c0 47.78 13.94 90.745 41.827 128.906 27.884 38.164 63.906 64.572 108.063 79.227 5.14.954 8.945.283 11.419-1.996 2.475-2.282 3.711-5.14 3.711-8.562 0-.571-.049-5.708-.144-15.417a2549.81 2549.81 0 0 1-.144-25.406l-6.567 1.136c-4.187.767-9.469 1.092-15.846 1-6.374-.089-12.991-.757-19.842-1.999-6.854-1.231-13.229-4.086-19.13-8.559-5.898-4.473-10.085-10.328-12.56-17.556l-2.855-6.57c-1.903-4.374-4.899-9.233-8.992-14.559-4.093-5.331-8.232-8.945-12.419-10.848l-1.999-1.431c-1.332-.951-2.568-2.098-3.711-3.429-1.142-1.331-1.997-2.663-2.568-3.997-.572-1.335-.098-2.43 1.427-3.289 1.525-.859 4.281-1.276 8.28-1.276l5.708.853c3.807.763 8.516 3.042 14.133 6.851 5.614 3.806 10.229 8.754 13.846 14.842 4.38 7.806 9.657 13.754 15.846 17.847 6.184 4.093 12.419 6.136 18.699 6.136 6.28 0 11.704-.476 16.274-1.423 4.565-.952 8.848-2.383 12.847-4.285 1.713-12.758 6.377-22.559 13.988-29.41-10.848-1.14-20.601-2.857-29.264-5.14-8.658-2.286-17.605-5.996-26.835-11.14-9.235-5.137-16.896-11.516-22.985-19.126-6.09-7.614-11.088-17.61-14.987-29.979-3.901-12.374-5.852-26.648-5.852-42.826 0-23.035 7.52-42.637 22.557-58.817-7.044-17.318-6.379-36.732 1.997-58.24 5.52-1.715 13.706-.428 24.554 3.853 10.85 4.283 18.794 7.952 23.84 10.994 5.046 3.041 9.089 5.618 12.135 7.708 17.705-4.947 35.976-7.421 54.818-7.421s37.117 2.474 54.823 7.421l10.849-6.849c7.419-4.57 16.18-8.758 26.262-12.565 10.088-3.805 17.802-4.853 23.134-3.138 8.562 21.509 9.325 40.922 2.279 58.24 15.036 16.18 22.559 35.787 22.559 58.817 0 16.178-1.958 30.497-5.853 42.966-3.9 12.471-8.941 22.457-15.125 29.979-6.191 7.521-13.901 13.85-23.131 18.986-9.232 5.14-18.182 8.85-26.84 11.136-8.662 2.286-18.415 4.004-29.263 5.146 9.894 8.562 14.842 22.077 14.842 40.539v60.237c0 3.422 1.19 6.279 3.572 8.562 2.379 2.279 6.136 2.95 11.276 1.995 44.163-14.653 80.185-41.062 108.068-79.226 27.88-38.161 41.825-81.126 41.825-128.906-.01-39.771-9.818-76.454-29.414-110.049z" data-original="#000000" class="aeactive-path" data-old_color="#000000" fill="#574C45"/></svg><svg viewBox="0 0 486.392 486.392" width="25" height="25" id="contact-icons--linkedin-button" x="106" y="378" xmlns="http://www.w3.org/2000/svg"><path d="M243.196 0C108.891 0 0 108.891 0 243.196s108.891 243.196 243.196 243.196 243.196-108.891 243.196-243.196C486.392 108.861 377.501 0 243.196 0zm-60.799 360.994h-60.799V148.197h60.799v212.797zm-28.515-225.838c-15.747 0-28.484-12.768-28.484-28.515s12.768-28.515 28.484-28.515c15.747.03 28.515 12.798 28.515 28.515 0 15.747-12.768 28.515-28.515 28.515zm241.311 225.838h-60.799V229.425c0-15.413-4.408-26.204-23.347-26.204-31.403 0-37.452 26.204-37.452 26.204v131.569h-60.799V148.197h60.799v20.337c8.694-6.657 30.399-20.307 60.799-20.307 19.699 0 60.799 11.795 60.799 83.051v129.716z" data-original="#010002" class="afactive-path" data-old_color="#010002" fill="#574C45"/></svg><svg width="42" height="42" viewBox="0 0 35 35" id="contact-icons--smartphone-call" x="250" y="198" xmlns="http://www.w3.org/2000/svg"><path d="M25.302 0H9.698a2.37 2.37 0 0 0-2.364 2.364v30.271A2.371 2.371 0 0 0 9.698 35h15.604a2.37 2.37 0 0 0 2.364-2.364V2.364A2.37 2.37 0 0 0 25.302 0zM15.004 1.704h4.992a.286.286 0 0 1 0 .573h-4.992a.286.286 0 1 1 0-.573zM17.5 33.818a1.182 1.182 0 1 1 0-2.364 1.182 1.182 0 0 1 0 2.364zm8.521-3.193H8.979V3.749h17.042v26.876z" data-original="#000000" class="agactive-path" data-old_color="#000000" fill="#574C45"/></svg><svg viewBox="0 0 486.392 486.392" width="42" height="42" id="contact-icons--social-buttons-skype" x="322" y="256" xmlns="http://www.w3.org/2000/svg"><path d="M463.258 274.522c1.368-9.88 2.128-19.942 2.128-30.156 0-122.692-100.045-222.19-223.406-222.19a222.275 222.275 0 0 0-35.963 2.918C185.041 11.414 160.083 3.48 133.241 3.48 59.613 3.481 0 63.185 0 136.782c0 26.782 7.873 51.679 21.462 72.564a221.897 221.897 0 0 0-2.766 35.02c0 122.723 99.953 222.19 223.315 222.19 13.923 0 27.481-1.368 40.644-3.739 20.459 12.707 44.626 20.094 70.436 20.094 73.658 0 133.302-59.674 133.302-133.302.029-27.815-8.453-53.716-23.135-75.087zM262.925 408.098c-70.983 3.709-104.179-12.038-134.609-40.553-33.987-31.889-20.337-68.247 7.357-70.101 27.664-1.854 44.262 31.342 59.036 40.583 14.744 9.211 70.861 30.187 100.501-3.709 32.284-36.875-21.462-55.965-60.86-61.741-56.239-8.299-127.252-38.729-121.719-98.707 5.533-59.887 50.889-90.651 98.646-94.968 60.86-5.533 100.501 9.211 131.842 35.963 36.236 30.916 16.629 65.45-6.445 68.216-23.043 2.766-48.822-50.828-99.558-51.618-52.287-.821-87.611 54.415-23.073 70.101 64.568 15.686 133.666 22.131 158.624 81.136 24.928 59.005-38.729 121.689-109.742 125.398z" data-original="#090509" class="ahactive-path" data-old_color="#090509" fill="#574C45"/></svg><svg width="64" height="64" viewBox="0 0 64 64" id="design-tools" x="256" y="250" xmlns="http://www.w3.org/2000/svg"><path d="M6.752 180.672c-27.104 27.136-21.312 65.344.256 86.88.864.832 87.488 83.584 209.312 205.408 3.136 3.136 7.232 4.672 11.328 4.672s8.192-1.568 11.328-4.672c6.24-6.24 6.24-16.384 0-22.624a18958.96 18958.96 0 0 0-52.416-52.192l50.848-50.848c6.24-6.24 6.24-16.384 0-22.624s-16.384-6.24-22.624 0l-50.976 50.976a15940.829 15940.829 0 0 0-74.08-72.672l115.68-115.68c6.24-6.24 6.24-16.384 0-22.624s-16.384-6.24-22.624 0L66.752 280.704c-23.552-22.816-37.12-35.776-37.344-36-6.752-6.752-15.616-25.76 0-41.376l160-160c6.176-6.272 22.624-18.72 40.672-.768.8.896 81.6 92.672 204.928 216 6.24 6.24 16.384 6.24 22.624 0s6.24-16.384 0-22.624C335.072 113.408 254.88 22.336 253.408 20.672c-29.824-29.76-65.792-20.832-86.624 0l-160.032 160zm678.656 592c-6.24-6.24-16.384-6.24-22.624 0l-50.912 50.88c-15.52-15.712-31.808-32.16-48.96-49.312-6.24-6.24-16.384-6.24-22.624 0s-6.24 16.384 0 22.624C658.816 915.36 741.6 1003.872 742.784 1005.152c10.976 11.008 26.016 17.056 42.336 17.056 16.8 0 33.792-6.56 44.32-17.12l159.936-161.824c20.128-20.128 21.28-54.272 2.496-73.12L777.28 555.584c-6.24-6.24-16.384-6.24-22.624 0s-6.24 16.384 0 22.624l214.592 214.56c6.4 6.4 5.184 20.224-2.528 27.936L806.752 982.528c-3.68 3.712-12.032 7.68-21.632 7.68-5.504 0-13.376-1.344-19.328-7.328-.32-.352-13.728-14.656-36.992-39.008l116.608-116.608c6.24-6.24 6.24-16.384 0-22.624s-16.384-6.24-22.624 0L706.656 920.768a10515.805 10515.805 0 0 0-72.32-74.432l51.072-51.072c6.24-6.208 6.24-16.32 0-22.592zM-9.376 1018.528c3.072 3.136 7.2 4.8 11.456 4.8 1.536 0 3.072-.224 4.576-.672l320-95.328a15.694 15.694 0 0 0 6.784-4.064l546.88-550.56c.768-.768 1.152-1.76 1.728-2.624L999.04 253.088c9.408-9.44 14.624-21.952 14.624-35.296 0-13.312-5.216-25.824-14.624-35.2L831.52 15.104c-18.816-18.816-51.68-18.816-70.496 0L641.376 134.752c-.768.768-1.184 1.76-1.76 2.656L91.904 685.152A15.841 15.841 0 0 0 88 691.52L-13.12 1002.4c-1.856 5.664-.416 11.84 3.744 16.128zM653.6 168.672l33.248 33.248L190.112 700l-55.264-12.544L653.6 168.672zm-443.52 556.64l499.424-500.736 77.952 77.952L283.52 800h-73.44v-74.688zm636.288-363.84L326.56 884.8l-18.464-64.064L810.08 325.152l36.288 36.32zM113.856 715.488l64.224 14.592V816c0 8.832 7.168 16 16 16h83.968l20.288 70.4L26.72 983.328l87.136-267.84zM783.68 37.728c6.752-6.752 18.496-6.752 25.248 0l167.52 167.52a17.717 17.717 0 0 1 5.216 12.608c0 4.736-1.856 9.248-5.248 12.64L868.544 338.4 675.808 145.664 783.68 37.728z"/></svg><svg width="42" height="42" viewBox="0 0 1799.99 1700.01" shape-rendering="geometricPrecision" text-rendering="geometricPrecision" image-rendering="optimizeQuality" fill-rule="evenodd" clip-rule="evenodd" id="flag" x="386" y="320" xmlns="http://www.w3.org/2000/svg"><path d="M1792.6 358.41c-933.9 1356.8-614.2-25.99-1403.7 635.7l179.5 705.9H366.5L0 259.01l185-66.4c884.9-647.1 422.8 582 1563.7 125.4 36.4-14.7 65.5 9 43.9 40.4z" fill="#fff"/></svg><svg viewBox="0 0 438 438" width="25" height="25" id="magnifying-glass" x="292" y="198" xmlns="http://www.w3.org/2000/svg"><path d="M279.25 0c-86 0-156 70-156 156 0 36 11 69 31 95l-145 145c-10 10-10 25 0 35 5 5 11 7 17 7s13-2 18-7l146-146c25 18 56 28 89 28 86 0 157-71 157-157s-71-156-157-156zm0 269c-62 0-113-51-113-113s51-113 113-113 113 51 113 113-51 113-113 113z" data-original="#010002" class="akactive-path" data-old_color="#010002" fill="#574C45"/><path d="M311.25 78c-11-5-23 0-28 11s0 24 11 29c1 1 27 13 24 35-2 13 8 25 22 25 11 0 20-8 21-19 6-44-29-72-50-81zm-5 110c-12 0-22 10-22 22s10 21 22 21 22-9 22-21-10-22-22-22z" data-original="#010002" class="akactive-path" data-old_color="#010002" fill="#574C45"/></svg><svg width="72" height="70" viewBox="0 0 19.85 19.37" shape-rendering="geometricPrecision" text-rendering="geometricPrecision" image-rendering="optimizeQuality" fill-rule="evenodd" clip-rule="evenodd" id="nikola-logo" x="250" xmlns="http://www.w3.org/2000/svg"><path d="M1.81 14.04a1.775 1.775 0 0 1 0 3.55 1.775 1.775 0 1 1 0-3.55zM.03 11.02h3.56v4.9H.03v-4.9zm4.9-1.39h3.59v5.39c0 .55.22.82.67.82.44 0 .66-.27.66-.82l.01-1.75h3.58v1.68c0 1.24-.41 2.29-1.24 3.14-.82.85-1.83 1.28-3.02 1.28-1.36 0-2.46-.49-3.28-1.48-.64-.78-.97-1.85-.97-3.23V9.63zm8.51 3.64H9.86V5.31c0-1.47.38-2.66 1.15-3.58.44-.52 1-.95 1.68-1.26.68-.31 1.38-.47 2.09-.47 1.43 0 2.63.48 3.6 1.44.98.95 1.47 2.13 1.47 3.52 0 1.35-.49 2.52-1.46 3.5-.97.99-2.11 1.48-3.44 1.48-.22 0-.54-.02-.96-.07V5.93c.3.23.59.34.88.34.38 0 .69-.14.96-.41.26-.27.4-.6.4-.97 0-.38-.14-.7-.42-.97-.27-.26-.6-.39-.99-.39-.92 0-1.38.63-1.38 1.91v7.83zM8.52 9.63H4.93L4.92 6.1c0-.54-.22-.82-.67-.82-.44 0-.66.28-.66.82v4.92H.03L0 6.17c-.01-1.24.41-2.29 1.23-3.14.83-.85 1.83-1.28 3.03-1.28 1.36 0 2.46.5 3.28 1.49.64.77.96 1.84.97 3.22l.01 3.17z" fill="#fff" fill-rule="nonzero"/></svg><svg width="64" height="64" viewBox="0 0 64 64" id="paint-brush" x="322" y="192" xmlns="http://www.w3.org/2000/svg"><path d="M403.75 0c22.75 0 43.75 17 43.75 40.75 0 13.25-5.25 26-11.25 37.75-19.5 37-85 159.25-116.25 188-15.25 14.25-33.25 22.75-54.5 22.75-42.25 0-76.75-36-76.75-78 0-20 8.25-39.5 23-53L371.25 13.5C380 5.5 391.5 0 403.75 0zM176.5 258.5c13 25.25 36.75 44.25 64.25 51.5l.25 17.75C242.5 399 193 448 121.5 448 36.75 448 0 380.5 0 303.75c9.25 6.25 41.5 32 52 32 6.25 0 11.5-3.5 13.75-9.25C87 271 120.25 261 176.5 258.5z"/></svg><svg viewBox="0 0 320 320" width="64" height="64" id="pc-settings" y="314" xmlns="http://www.w3.org/2000/svg"><path d="M292.697 19.995H27.303C12.223 19.995 0 32.219 0 47.299v163.822c0 15.079 12.223 27.304 27.303 27.304H133.79v24.7h-21.544c-10.185 0-18.439 8.255-18.439 18.44 0 10.184 8.255 18.44 18.439 18.44h95.508c10.186 0 18.44-8.256 18.44-18.44 0-10.185-8.254-18.44-18.44-18.44H186.21v-24.7h106.487c15.08 0 27.303-12.225 27.303-27.304V47.299c0-15.08-12.223-27.304-27.303-27.304zM32.181 179.96c0-14.4 11.715-26.116 26.115-26.116 14.401 0 26.115 11.716 26.115 26.116s-11.713 26.116-26.115 26.116c-14.4 0-26.115-11.716-26.115-26.116zm256.147 26.792H127.579a4.86 4.86 0 0 0-1.292-5.409l-10.479-9.308a58.822 58.822 0 0 0 1.251-12.075 58.78 58.78 0 0 0-1.253-12.085l10.478-9.305a4.867 4.867 0 0 0 .983-6.072l-10.706-18.544a4.866 4.866 0 0 0-5.75-2.184l-13.338 4.434a58.762 58.762 0 0 0-20.884-12.086l-2.821-13.73a4.868 4.868 0 0 0-4.769-3.887H47.586a4.869 4.869 0 0 0-4.768 3.887l-2.82 13.733a58.493 58.493 0 0 0-8.326 3.484V51.667h256.655v155.085z" data-original="#000000" class="anactive-path" data-old_color="#822929" fill="#574C45"/><path d="M143.873 127.778a2.868 2.868 0 0 0-3.389 1.288l-6.312 10.931a2.871 2.871 0 0 0 .579 3.578l6.177 5.486a34.62 34.62 0 0 0-.737 7.116c0 2.441.256 4.823.739 7.123l-6.176 5.484a2.87 2.87 0 0 0-.58 3.579l6.311 10.93a2.867 2.867 0 0 0 3.388 1.287l7.861-2.613a34.658 34.658 0 0 0 12.31 7.124l1.663 8.093a2.87 2.87 0 0 0 2.811 2.289h12.62a2.868 2.868 0 0 0 2.81-2.289l1.663-8.095a34.659 34.659 0 0 0 12.309-7.126l7.859 2.613a2.871 2.871 0 0 0 3.389-1.288l6.311-10.93a2.871 2.871 0 0 0-.58-3.579l-6.177-5.486a34.644 34.644 0 0 0-.001-14.239l6.175-5.484a2.87 2.87 0 0 0 .579-3.58l-6.31-10.929a2.866 2.866 0 0 0-3.389-1.287l-7.861 2.613a34.645 34.645 0 0 0-12.311-7.123l-1.663-8.093a2.868 2.868 0 0 0-2.809-2.291h-12.621a2.87 2.87 0 0 0-2.81 2.291l-1.663 8.095a34.635 34.635 0 0 0-12.309 7.126l-7.856-2.614zm30.954 13.007c8.487 0 15.392 6.905 15.392 15.393s-6.905 15.394-15.392 15.394c-8.487 0-15.394-6.905-15.394-15.394.001-8.488 6.907-15.393 15.394-15.393zm-70.139-48.847a23.763 23.763 0 0 0 .001 9.76l-4.232 3.758a1.967 1.967 0 0 0-.396 2.453l4.326 7.492a1.964 1.964 0 0 0 2.322.882l5.388-1.792a23.75 23.75 0 0 0 8.436 4.884l1.14 5.546a1.967 1.967 0 0 0 1.925 1.569h8.651a1.965 1.965 0 0 0 1.925-1.569l1.141-5.548a23.752 23.752 0 0 0 8.436-4.884l5.387 1.792a1.966 1.966 0 0 0 2.322-.883l4.326-7.491a1.97 1.97 0 0 0-.397-2.453l-4.233-3.76a23.755 23.755 0 0 0-.001-9.76l4.232-3.759a1.97 1.97 0 0 0 .398-2.453l-4.326-7.491a1.965 1.965 0 0 0-2.322-.883l-5.388 1.791a23.752 23.752 0 0 0-8.437-4.883l-1.14-5.547a1.966 1.966 0 0 0-1.925-1.57h-8.65c-.934 0-1.738.656-1.926 1.57l-1.14 5.549a23.726 23.726 0 0 0-8.435 4.883l-5.388-1.792a1.967 1.967 0 0 0-2.322.883l-4.325 7.491c-.467.808-.3 1.833.396 2.452l4.231 3.763zm23.234-5.673c5.816 0 10.549 4.732 10.549 10.55 0 5.818-4.732 10.549-10.549 10.549s-10.55-4.731-10.55-10.549c0-5.817 4.733-10.55 10.55-10.55z" data-original="#000000" class="anactive-path" data-old_color="#822929" fill="#574C45"/></svg><svg width="64" height="64" viewBox="0 0 396.494 396.494" id="responsive-design-symbol" x="64" y="314" xmlns="http://www.w3.org/2000/svg"><path d="M304.42 330.901h-43.219a2.84 2.84 0 0 1-2.834-2.834v-10.52a2.842 2.842 0 0 0-2.834-2.834h-60.475a2.842 2.842 0 0 0-2.835 2.834v10.52a2.84 2.84 0 0 1-2.835 2.834h-32.491a2.842 2.842 0 0 0-2.835 2.834v12.17a2.842 2.842 0 0 0 2.835 2.834h147.521a2.842 2.842 0 0 0 2.834-2.834v-12.17a2.84 2.84 0 0 0-2.832-2.834zm72.612-284.533h-308.4c-10.73 0-19.459 8.73-19.459 19.462v50.761c0 6.711-.498 7.66 4.004 7.66h7.72c3.778 0 3.003-.949 3.003-7.785V65.83c0-2.565 2.168-4.733 4.732-4.733h308.4c2.563 0 4.731 2.168 4.731 4.733v189.999h-219.87s-7.749-.014-7.749 10.006v23.766c0 10.006 8 10.006 8 10.006h214.888c10.729 0 19.461-8.729 19.461-19.459V65.83c0-10.731-8.73-19.462-19.461-19.462zM222.833 282.804a8.77 8.77 0 1 1-.004-17.538 8.77 8.77 0 0 1 .004 17.538z" data-original="#000000" class="aoactive-path" data-old_color="#4BD789" fill="#574C45"/><path d="M124.125 141.633H12.559C5.632 141.633 0 147.266 0 154.193v183.372c0 6.926 5.632 12.561 12.559 12.561h111.566c6.923 0 12.559-5.635 12.559-12.561V154.193c0-6.927-5.636-12.56-12.559-12.56zm-69.545 12.81h27.523a2.38 2.38 0 0 1 0 4.76H54.58a2.378 2.378 0 0 1-2.379-2.379 2.378 2.378 0 0 1 2.379-2.381zm13.595 186.861a6.5 6.5 0 1 1 0-13 6.5 6.5 0 0 1 0 13zm57.718-19.104c0 1.676-1.342 3.047-2.98 3.047H13.774c-1.639 0-2.98-1.371-2.98-3.047V169.825c0-1.676 1.342-3.046 2.98-3.046h109.139c1.639 0 2.98 1.371 2.98 3.046V322.2z" data-original="#000000" class="aoactive-path" data-old_color="#4BD789" fill="#574C45"/></svg><svg viewBox="0 0 232.688 232.688" width="64" height="64" id="skills" x="128" y="314" xmlns="http://www.w3.org/2000/svg"><path d="M97.688 61.344h120c8.284 0 15-6.716 15-15s-6.716-15-15-15h-120c-8.284 0-15 6.716-15 15s6.715 15 15 15zm120 40h-120c-8.284 0-15 6.716-15 15s6.716 15 15 15h120c8.284 0 15-6.716 15-15s-6.716-15-15-15zm0 70h-120c-8.284 0-15 6.716-15 15 0 8.284 6.716 15 15 15h120c8.284 0 15-6.716 15-15 0-8.284-6.716-15-15-15zM48.785 104.408l-9.989-1.452-4.467-9.052a7.5 7.5 0 0 0-13.452 0l-4.468 9.052-9.988 1.452A7.5 7.5 0 0 0 2.263 117.2l7.228 7.045-1.707 9.949a7.5 7.5 0 0 0 10.881 7.908l8.936-4.698 8.936 4.698a7.493 7.493 0 0 0 3.489.861h.021a7.5 7.5 0 0 0 7.276-9.325l-1.612-9.393 7.228-7.045a7.499 7.499 0 0 0-4.154-12.792zm0-70l-9.989-1.452-4.467-9.052a7.5 7.5 0 0 0-13.452 0l-4.468 9.052-9.988 1.452A7.5 7.5 0 0 0 2.263 47.2l7.228 7.045-1.707 9.949a7.5 7.5 0 0 0 10.881 7.908l8.936-4.698 8.936 4.698a7.493 7.493 0 0 0 3.489.861h.021a7.5 7.5 0 0 0 7.499-7.5 7.52 7.52 0 0 0-.223-1.825l-1.612-9.393 7.228-7.045a7.499 7.499 0 0 0-4.154-12.792zm0 140l-9.989-1.452-4.467-9.052a7.5 7.5 0 0 0-13.452 0l-4.468 9.052-9.988 1.452A7.5 7.5 0 0 0 2.263 187.2l7.228 7.045-1.707 9.949a7.5 7.5 0 0 0 10.881 7.908l8.936-4.698 8.936 4.698a7.493 7.493 0 0 0 3.489.861h.021a7.5 7.5 0 0 0 7.276-9.325l-1.612-9.393 7.228-7.045a7.499 7.499 0 0 0-4.154-12.792z" fill="#FFF"/></svg><svg width="250" height="250" viewBox="0 0 256 256" preserveAspectRatio="xMinYMin meet" id="tech-logos--bootstrap-4" xmlns="http://www.w3.org/2000/svg"><path d="M0 222.991C0 241.223 14.779 256 33.009 256H222.99c18.233 0 33.01-14.779 33.01-33.009V33.01C256 14.777 241.221 0 222.991 0H33.01C14.777 0 0 14.779 0 33.009V222.99z" fill="#563D7C"/><path d="M106.158 113.238V76.985h31.911c3.04 0 5.97.253 8.792.76 2.822.506 5.319 1.41 7.49 2.713 2.17 1.303 3.907 3.112 5.21 5.427 1.302 2.316 1.954 5.283 1.954 8.9 0 6.513-1.954 11.217-5.862 14.111-3.907 2.895-8.9 4.342-14.979 4.342h-34.516zM72.075 50.5v155h75.112c6.947 0 13.713-.868 20.298-2.605 6.585-1.737 12.446-4.414 17.584-8.032 5.137-3.618 9.226-8.286 12.265-14.002 3.04-5.717 4.559-12.483 4.559-20.298 0-9.697-2.352-17.982-7.055-24.856-4.704-6.875-11.832-11.687-21.384-14.437 6.947-3.328 12.194-7.598 15.74-12.808 3.545-5.21 5.318-11.722 5.318-19.538 0-7.236-1.194-13.314-3.582-18.235-2.388-4.92-5.753-8.864-10.095-11.831-4.341-2.967-9.551-5.102-15.63-6.404-6.078-1.303-12.808-1.954-20.189-1.954H72.075zm34.083 128.515v-42.549h37.121c7.381 0 13.315 1.7 17.802 5.102 4.486 3.401 6.73 9.081 6.73 17.041 0 4.053-.688 7.381-2.063 9.986-1.375 2.605-3.22 4.668-5.536 6.187-2.315 1.52-4.993 2.605-8.032 3.257-3.04.65-6.223.976-9.552.976h-36.47z" fill="#FFF"/></svg><svg width="64" height="64" viewBox="0 0 256 361" preserveAspectRatio="xMidYMid" id="tech-logos--css-3" x="250" y="70" xmlns="http://www.w3.org/2000/svg"><path d="M127.844 360.088L23.662 331.166.445 70.766h255.11l-23.241 260.36-104.47 28.962z" fill="#264DE4"/><path d="M212.417 314.547l19.86-222.49H128V337.95l84.417-23.403z" fill="#2965F1"/><path d="M53.669 188.636l2.862 31.937H128v-31.937H53.669zm-5.752-64.641l2.903 31.937H128v-31.937H47.917zM128 271.58l-.14.037-35.568-9.604-2.274-25.471h-32.06l4.474 50.146 65.421 18.16.147-.04V271.58z" fill="#EBEBEB"/><path d="M60.484 0h38.68v16.176H76.66v16.176h22.506v16.175H60.484V0zm46.417 0h38.681v14.066h-22.505v2.813h22.505v32.352h-38.68V34.46h22.505v-2.813H106.9V0zm46.418 0H192v14.066h-22.505v2.813H192v32.352h-38.681V34.46h22.505v-2.813H153.32V0z"/><path d="M202.127 188.636l5.765-64.641H127.89v31.937h45.002l-2.906 32.704H127.89v31.937h39.327l-3.708 41.42-35.62 9.614v33.226l65.473-18.145.48-5.396 7.506-84.08.779-8.576z" fill="#FFF"/></svg><svg width="64" height="64" viewBox="0 0 512 149" id="tech-logos--express-109" x="320" y="314" xmlns="http://www.w3.org/2000/svg"><path d="M3.332 115.629V58.648h71.144v-3.333H3.332V3.332h75.642V0H0v118.961h79.64v-3.332H3.333zm140.455-82.307l-29.49 38.821-28.825-38.82H81.14l31.157 41.32L78.14 118.96h3.999l32.156-41.82 32.323 41.82h4.165l-34.322-44.319 31.323-41.32h-3.998zm16.994 114.963V94.97h.333c2 7.775 5.943 14.023 11.83 18.744 5.887 4.72 13.384 7.081 22.492 7.081 5.887 0 11.108-1.194 15.662-3.582s8.358-5.637 11.413-9.747c3.054-4.11 5.387-8.886 6.998-14.329 1.61-5.442 2.416-11.163 2.416-17.16 0-6.443-.834-12.386-2.5-17.828-1.666-5.443-4.082-10.164-7.247-14.162-3.166-3.999-6.998-7.11-11.497-9.33-4.498-2.222-9.58-3.333-15.245-3.333-4.332 0-8.358.639-12.079 1.916-3.721 1.278-7.025 3.082-9.913 5.415a36.674 36.674 0 0 0-7.498 8.247c-2.11 3.166-3.721 6.637-4.832 10.414h-.333V33.322h-3.332v114.963h3.332zm34.655-30.657c-10.44 0-18.827-3.582-25.158-10.746-6.331-7.164-9.497-17.467-9.497-30.907 0-5.554.778-10.83 2.333-15.828 1.555-4.998 3.804-9.386 6.747-13.162 2.944-3.777 6.582-6.776 10.913-8.997 4.332-2.222 9.22-3.333 14.662-3.333 5.554 0 10.414 1.111 14.579 3.333 4.165 2.221 7.609 5.248 10.33 9.08s4.776 8.22 6.165 13.162c1.388 4.943 2.082 10.191 2.082 15.745 0 4.999-.638 9.97-1.916 14.912-1.277 4.943-3.249 9.386-5.915 13.33-2.665 3.942-6.08 7.163-10.246 9.663-4.166 2.499-9.192 3.748-15.079 3.748zm54.816 1.333V70.477c0-4.665.666-9.22 2-13.662 1.332-4.443 3.387-8.359 6.164-11.746 2.777-3.388 6.303-6.054 10.58-7.998 4.276-1.944 9.358-2.749 15.245-2.416v-3.332c-5.11-.11-9.58.444-13.412 1.666-3.833 1.222-7.137 2.888-9.914 4.999-2.777 2.11-4.998 4.581-6.664 7.414a33.15 33.15 0 0 0-3.666 9.08h-.333v-21.16h-3.332v85.64h3.332zm38.154-42.153h71.643c.223-5.887-.36-11.551-1.749-16.994-1.388-5.443-3.61-10.275-6.664-14.495-3.055-4.221-6.998-7.609-11.83-10.164-4.832-2.555-10.58-3.832-17.244-3.832-4.777 0-9.442 1-13.996 3-4.554 1.999-8.553 4.914-11.996 8.746-3.443 3.832-6.22 8.525-8.33 14.08-2.11 5.553-3.166 11.884-3.166 18.993 0 6.331.722 12.246 2.166 17.744 1.444 5.498 3.665 10.275 6.664 14.329 3 4.054 6.86 7.192 11.58 9.413 4.72 2.222 10.413 3.277 17.078 3.166 9.774 0 17.994-2.75 24.658-8.247 6.665-5.499 10.608-13.246 11.83-23.243h-3.332c-1.444 9.442-5.138 16.523-11.08 21.243-5.943 4.721-13.412 7.081-22.41 7.081-6.109 0-11.274-1.055-15.495-3.165-4.22-2.11-7.664-4.999-10.33-8.664-2.665-3.666-4.637-7.97-5.914-12.913-1.278-4.942-1.972-10.302-2.083-16.078zm68.311-3.332h-68.31c.332-5.998 1.443-11.385 3.331-16.161 1.889-4.777 4.36-8.859 7.415-12.246 3.054-3.388 6.609-5.97 10.663-7.748 4.054-1.777 8.414-2.666 13.079-2.666 5.554 0 10.44 1.028 14.662 3.083 4.22 2.055 7.747 4.86 10.58 8.414 2.832 3.554 4.97 7.692 6.414 12.412 1.444 4.721 2.166 9.692 2.166 14.912zm72.477-14.828h3.332c0-9.553-2.777-16.495-8.33-20.827-5.555-4.332-13.108-6.498-22.66-6.498-5.332 0-9.83.667-13.496 2-3.665 1.332-6.664 3.054-8.997 5.164-2.332 2.11-3.998 4.443-4.998 6.998-1 2.555-1.5 4.999-1.5 7.331 0 4.665.833 8.386 2.5 11.163 1.666 2.777 4.276 4.943 7.83 6.498 2.444 1.11 5.22 2.11 8.331 3 3.11.888 6.72 1.832 10.83 2.831 3.665.89 7.275 1.778 10.83 2.666 3.554.889 6.692 2.083 9.413 3.582 2.722 1.5 4.943 3.416 6.665 5.749 1.721 2.332 2.582 5.387 2.582 9.163 0 3.666-.86 6.776-2.582 9.33a20.815 20.815 0 0 1-6.581 6.249c-2.666 1.61-5.638 2.776-8.914 3.498-3.277.722-6.47 1.083-9.58 1.083-10.108 0-17.856-2.249-23.243-6.747-5.387-4.499-8.08-11.58-8.08-21.244h-3.333c0 10.775 2.916 18.661 8.747 23.66 5.832 4.998 14.468 7.497 25.909 7.497 3.665 0 7.358-.417 11.08-1.25 3.72-.833 7.053-2.193 9.996-4.082a22.592 22.592 0 0 0 7.164-7.33c1.833-3 2.75-6.665 2.75-10.997 0-4.11-.806-7.442-2.416-9.997-1.611-2.554-3.721-4.665-6.332-6.331-2.61-1.666-5.553-2.971-8.83-3.915a516.08 516.08 0 0 0-9.914-2.75 1726.675 1726.675 0 0 0-12.246-3.165c-3.498-.889-6.747-1.944-9.746-3.166-2.888-1.222-5.193-2.971-6.915-5.248-1.722-2.277-2.582-5.526-2.582-9.747 0-.777.222-2.166.666-4.165.444-2 1.5-4.027 3.166-6.082 1.666-2.054 4.22-3.887 7.664-5.498 3.443-1.61 8.164-2.416 14.162-2.416 4.11 0 7.858.445 11.246 1.333 3.388.889 6.304 2.305 8.747 4.249 2.444 1.944 4.332 4.415 5.665 7.414 1.333 3 2 6.665 2 10.997zm77.141 0h3.332c0-9.553-2.776-16.495-8.33-20.827-5.554-4.332-13.107-6.498-22.66-6.498-5.331 0-9.83.667-13.495 2-3.666 1.332-6.665 3.054-8.997 5.164-2.333 2.11-3.999 4.443-4.999 6.998-1 2.555-1.499 4.999-1.499 7.331 0 4.665.833 8.386 2.5 11.163 1.665 2.777 4.276 4.943 7.83 6.498 2.444 1.11 5.22 2.11 8.33 3 3.11.888 6.72 1.832 10.83 2.831 3.666.89 7.276 1.778 10.83 2.666 3.555.889 6.692 2.083 9.414 3.582 2.721 1.5 4.943 3.416 6.664 5.749 1.722 2.332 2.583 5.387 2.583 9.163 0 3.666-.861 6.776-2.583 9.33a20.815 20.815 0 0 1-6.58 6.249c-2.667 1.61-5.638 2.776-8.915 3.498-3.276.722-6.47 1.083-9.58 1.083-10.108 0-17.855-2.249-23.242-6.747-5.388-4.499-8.081-11.58-8.081-21.244h-3.332c0 10.775 2.915 18.661 8.747 23.66 5.831 4.998 14.467 7.497 25.908 7.497 3.666 0 7.359-.417 11.08-1.25 3.72-.833 7.053-2.193 9.997-4.082a22.592 22.592 0 0 0 7.164-7.33c1.833-3 2.749-6.665 2.749-10.997 0-4.11-.805-7.442-2.416-9.997-1.61-2.554-3.72-4.665-6.331-6.331-2.61-1.666-5.554-2.971-8.83-3.915a516.071 516.071 0 0 0-9.914-2.75 1726.65 1726.65 0 0 0-12.246-3.165c-3.499-.889-6.748-1.944-9.747-3.166-2.888-1.222-5.193-2.971-6.914-5.248-1.722-2.277-2.583-5.526-2.583-9.747 0-.777.222-2.166.667-4.165.444-2 1.5-4.027 3.165-6.082 1.666-2.054 4.221-3.887 7.664-5.498 3.444-1.61 8.164-2.416 14.163-2.416 4.11 0 7.858.445 11.246 1.333 3.388.889 6.303 2.305 8.747 4.249 2.444 1.944 4.332 4.415 5.665 7.414 1.333 3 2 6.665 2 10.997z" fill="#222"/></svg><svg width="64" height="64" viewBox="0 0 256 108" preserveAspectRatio="xMinYMin meet" id="tech-logos--git" x="386" xmlns="http://www.w3.org/2000/svg"><path d="M152.984 37.214c-5.597 0-9.765 2.748-9.765 9.362 0 4.983 2.747 8.443 9.463 8.443 5.693 0 9.56-3.355 9.56-8.65 0-6-3.46-9.155-9.258-9.155zm-11.19 46.701c-1.325 1.625-2.645 3.353-2.645 5.39 0 4.067 5.186 5.291 12.31 5.291 5.9 0 13.938-.414 13.938-5.9 0-3.261-3.867-3.462-8.753-3.768l-14.85-1.013zm30.113-46.394c1.828 2.34 3.764 5.597 3.764 10.276 0 11.292-8.851 17.904-21.667 17.904-3.259 0-6.209-.406-8.038-.914l-3.359 5.39 9.969.61c17.602 1.122 27.975 1.632 27.975 15.157 0 11.702-10.272 18.311-27.975 18.311-18.413 0-25.433-4.68-25.433-12.716 0-4.578 2.035-7.015 5.596-10.378-3.358-1.419-4.476-3.961-4.476-6.71 0-2.24 1.118-4.273 2.952-6.208 1.83-1.93 3.864-3.865 6.306-6.103-4.984-2.442-8.75-7.732-8.75-15.262 0-11.697 7.733-19.731 23.295-19.731 4.376 0 7.022.402 9.362 1.017h19.84v8.644l-9.361.713zm27.259-18.487c-5.8 0-9.157-3.36-9.157-9.161 0-5.793 3.356-8.95 9.157-8.95 5.9 0 9.258 3.157 9.258 8.95 0 5.801-3.357 9.161-9.258 9.161zM186.04 80.171v-8.033l5.19-.71c1.425-.205 1.627-.509 1.627-2.038V39.48c0-1.116-.304-1.832-1.325-2.134l-5.492-1.935 1.118-8.238h21.061V69.39c0 1.63.098 1.833 1.629 2.039l5.188.71v8.032H186.04zm69.227-3.944c-4.376 2.135-10.785 4.068-16.586 4.068-12.106 0-16.682-4.878-16.682-16.38V37.264c0-.61 0-1.017-.817-1.017h-7.12V27.19c8.955-1.02 12.513-5.496 13.632-16.585h9.666v14.45c0 .71 0 1.017.815 1.017h14.343v10.173H237.36v24.313c0 6.002 1.426 8.34 6.917 8.34 2.852 0 5.799-.71 8.24-1.626l2.75 8.954" fill="#2F2707"/><path d="M104.529 49.53L58.013 3.017a6.86 6.86 0 0 0-9.703 0l-9.659 9.66 12.253 12.252a8.145 8.145 0 0 1 8.383 1.953 8.157 8.157 0 0 1 1.936 8.434L73.03 47.125c2.857-.984 6.154-.347 8.435 1.938a8.161 8.161 0 0 1 0 11.545 8.164 8.164 0 0 1-13.324-8.88L57.129 40.716l-.001 28.98a8.248 8.248 0 0 1 2.159 1.544 8.164 8.164 0 0 1 0 11.547c-3.19 3.19-8.36 3.19-11.545 0a8.164 8.164 0 0 1 2.672-13.328v-29.25a8.064 8.064 0 0 1-2.672-1.782c-2.416-2.413-2.997-5.958-1.759-8.925l-12.078-12.08L2.011 49.314a6.863 6.863 0 0 0 0 9.706l46.516 46.514a6.862 6.862 0 0 0 9.703 0l46.299-46.297a6.866 6.866 0 0 0 0-9.707" fill="#DE4C36"/></svg><svg width="64" height="64" viewBox="0 0 256 566" preserveAspectRatio="xMinYMin meet" id="tech-logos--gulp" x="386" y="64" xmlns="http://www.w3.org/2000/svg"><path d="M197.28 548.749l5.427-90.43 14.985-25.58s-34.106 13.952-91.205 13.952c-57.1 0-90.689-13.694-90.689-13.694l16.794 27.904 5.941 87.848c0 9.418 31.059 17.052 69.374 17.052 38.313 0 69.373-7.634 69.373-17.052m-17.119-422.295l11.391-45.025 63.081-66.376L238.007.892l-66.784 70.707-13.226 53.793a886.14 886.14 0 0 0-29.873-.497c-70.336 0-127.355 8.016-127.355 17.902 0 9.887 57.019 17.902 127.355 17.902 70.335 0 127.353-8.015 127.353-17.902 0-7.28-30.924-13.546-75.316-16.343" fill="#D34A47"/><path d="M173.535 151.669s-2.467.553-9.724.584c-7.259.03-12.413-.047-14.466-1.917-.552-.502-.854-1.499-.851-2.174.006-1.285.918-2.042 2.08-2.516l1.099 1.724c-.478.165-.751.36-.752.568-.004.976 7.422 1.644 13.102 1.572 5.681-.07 12.545-.538 12.551-1.5 0-.291-.519-.565-1.422-.781l1.094-1.712c1.472.457 2.757 1.34 2.754 2.868-.014 2.598-3.32 2.993-5.465 3.284" fill="#FFF"/><path d="M254.509 15.184c1.586-1.832-.821-6.518-5.376-10.465C244.576.774 239.596-.94 238.007.892c-1.587 1.832.821 6.518 5.378 10.463 4.555 3.946 9.537 5.662 11.124 3.829m-60.263 312.681c-1.495-14.384 31.462-35.216 23.004-35.883-18.208 1.041-27.27 21.338-36.431 42.596-3.357 7.791-14.844 41.013-22.378 36.923-7.532-4.088 9.765-31.407 14.613-47.631-5.594 4.102-26.109 20.041-31.396 5.114-8.5 7.219-26.663 11.13-24.614-7.833-4.522 8.01-14.671 19.193-26.853 14.546-15.998-6.101 9.27-57.062 15.553-54.491 6.284 2.57-1.268 14.179-3.246 18.687-4.35 9.921-9.375 22.393-6.018 24.946 5.751 4.374 21.401-16.547 21.749-17.007 2.927-3.867 11.266-29.166 17.987-26.261 6.721 2.905-16.764 36.308-7.983 42.937 1.771 1.338 9.017-.825 13.425-5.594 2.852-3.085 1.871-9.918 11.378-32.59 9.507-22.671 17.98-50.905 24.5-48.754 6.52 2.15 1.146 16.641-1.193 22.043-10.976 25.354-29.956 67.241-21.005 64.07 8.951-3.17 13.612-3.356 22.377-13.613 8.765-10.257 8.361-27.152 14.203-26.793 5.844.36 4.863 5.777 3.446 9.902 5.75-6.58 27.256-20.438 32.448-6.713 6.15 16.249-30.769 39.72-21.564 38.523 8.975-1.167 23.515-10.376 29.723-18.749l17.088-153.626s-17.195 14.23-126.589 14.23c-109.395 0-124.811-13.934-124.811-13.934l14.548 140.224c7.722-21.947 26.059-66.339 54.963-64.849 13.148.678 30.7 25.995 15.665 26.853-6.364.362-7.01-12.637-14.546-14.546-5.438-1.378-13.009 3.043-17.902 7.833-9.758 9.55-30.745 47.229-27.972 66.014 3.533 23.949 33.048-8.322 38.042-17.903 3.517-6.749 5.893-26.745 13.585-24.647 7.693 2.098-.671 22.734-6.247 40.979-6.264 20.487-9.557 42.098-17.408 39.612-7.852-2.484 4.938-28.932 4.475-33.566-7.38 6.809-20.976 24.047-38.37 15.515l9.035 87.078s24.013 18.973 96.35 18.973c72.337 0 97.239-18.677 97.239-18.677l11.219-100.857c-9.179 8.938-38.229 24.81-40.089 6.919" fill="#D34A47"/></svg><svg width="64" height="64" viewBox="221.807 89.47 440 621.061" enable-background="new 221.807 89.47 440 621.061" id="tech-logos--html5" x="386" y="128" xmlns="http://www.w3.org/2000/svg"><filter id="ava" width="150%" height="150%" x="-5%" y="-5%"><feFlood flood-color="#000" result="floodFill" flood-opacity=".5"/><feComposite in="floodFill" in2="SourceAlpha" operator="in" result="coloredAlpha"/><feGaussianBlur in="coloredAlpha" result="blur" stdDeviation="8"/><feComposite in="blur" in2="SourceGraphic" operator="out" result="maskedOffsetBlur"/><feMerge><feMergeNode in="maskedOffsetBlur"/><feMergeNode in="SourceGraphic"/></feMerge></filter><g filter="url(#ava)"><path fill="#e44d26" d="M261.849 660.647l-40.042-449.125h440l-40.086 449.054-180.184 49.954z"/><path fill="#f16529" d="M441.807 672.348l145.596-40.367 34.258-383.735H441.807z"/><path fill="#ebebeb" d="M441.807 414.82h-72.888l-5.035-56.406h77.923V303.33H303.683l1.32 14.778 13.538 151.794h123.266zm0 143.056l-.242.066-61.346-16.566-3.922-43.93h-55.294l7.718 86.489 112.834 31.323.252-.071z"/><path d="M262.745 89.47h27.992v27.656h25.606V89.47h27.993v83.75h-27.993v-28.044h-25.606v28.044h-27.99l-.002-83.75zm118.404 27.774h-24.642V89.47H433.8v27.774h-24.654v55.976H381.15v-55.976h-.001zm64.916-27.774h29.19l17.955 29.428 17.938-29.428h29.2v83.75h-27.882v-41.512l-19.259 29.778h-.481l-19.272-29.778v41.512h-27.39V89.47zm108.212 0h28v56.068h39.368v27.682h-67.368V89.47z"/><path fill="#fff" d="M441.617 414.82v55.082h67.83l-6.395 71.44-61.435 16.58v57.307l112.924-31.294.826-9.309 12.946-145.014 1.344-14.792h-14.842zm0-111.49v55.084H574.67l1.103-12.382 2.51-27.924 1.318-14.778z"/></g></svg><svg width="64" height="64" viewBox="0 0 256 256" preserveAspectRatio="xMinYMin meet" id="tech-logos--javascript" x="386" y="192" xmlns="http://www.w3.org/2000/svg"><path d="M0 0h256v256H0V0z" fill="#F7DF1E"/><path d="M67.312 213.932l19.59-11.856c3.78 6.701 7.218 12.371 15.465 12.371 7.905 0 12.89-3.092 12.89-15.12v-81.798h24.057v82.138c0 24.917-14.606 36.259-35.916 36.259-19.245 0-30.416-9.967-36.087-21.996m85.07-2.576l19.588-11.341c5.157 8.421 11.859 14.607 23.715 14.607 9.969 0 16.325-4.984 16.325-11.858 0-8.248-6.53-11.17-17.528-15.98l-6.013-2.58c-17.357-7.387-28.87-16.667-28.87-36.257 0-18.044 13.747-31.792 35.228-31.792 15.294 0 26.292 5.328 34.196 19.247l-18.732 12.03c-4.125-7.389-8.591-10.31-15.465-10.31-7.046 0-11.514 4.468-11.514 10.31 0 7.217 4.468 10.14 14.778 14.608l6.014 2.577c20.45 8.765 31.963 17.7 31.963 37.804 0 21.654-17.012 33.51-39.867 33.51-22.339 0-36.774-10.654-43.819-24.574"/></svg><svg width="64" height="64" viewBox="0 0 512 116" id="tech-logos--jquery-1" x="386" y="256" xmlns="http://www.w3.org/2000/svg"><g fill="none" fill-rule="evenodd"><path d="M489.718 8.646l21.42.118s-39.824 53.964-43.076 58.362c-1.056 1.424-2.66 2.96-3.474 4.864-2.057 4.786-4.169 15.285-4.169 15.285l-19.599.098s3.05-10.944 2.924-16.773c-.11-5.092-2.71-10.178-4.168-15.285-1.474-5.17-3.475-15.286-3.475-15.286h20.15l2.779 11.117 30.688-42.5" fill="#1A1918"/><path d="M449.157 20.027c3.953 2.383 6.379 15.529 6.379 15.529s-20.684.305-31.94.305h-9.727l-11.812 51.414h-18.064s11.242-55.874 13.896-66.004c.86-3.28 5.892-2.717 14.389-2.717h13.569c8.762 0 19.003-1.119 23.31 1.473m-84.097 25.04s.563-3.3-1.91-7.122c-2.113-3.258-4.064-4.016-9.623-4.19-15.695-.493-15.39 11.138-15.39 11.138l26.923.174zm17.022-13.32c2.3 8.297-2.084 27.792-2.084 27.792s-22.894-.382-35.434 0c-3.899.119-8.566-.424-9.727 1.39-1.633 2.542.597 6.455 2.487 8.108 2.175 1.903 6.412 2.12 7.935 2.313 10.178 1.293 31.48.334 31.48.334l-3.69 16.34s-30.103 1.51-45.16-2.084c-2.973-.708-5.76-2.139-7.643-4.168-.514-.555-.96-1.312-1.446-1.966-.388-.522-1.52-2.237-2.028-3.593-3.439-9.164.403-26.72 4.169-36.128.437-1.09.986-2.473 1.564-3.648.722-1.465 1.333-3.119 1.91-3.995.388-.604.869-.993 1.272-1.563.465-.674 1.006-1.327 1.507-1.91 1.39-1.612 2.967-2.752 4.864-4.168 6.273-4.698 17.626-8.345 31.265-6.949 5.135.528 12.89 2.362 16.675 7.643 1.014 1.41 1.515 4.21 2.084 6.253zM299.229 18.49l17.516-.103s-9.762 46.307-14.737 68.888h-20.15c-14.082 0-26.623 1.744-31.959-8.338-5.176-9.789-.236-25.887 2.084-36.824 1.64-7.74 5.094-23.56 5.094-23.56l18.148-.166s-5.128 24.63-7.262 36.928c-.764 4.405-2.34 8.553-.694 11.81 1.563 3.1 3.752 3.322 10.421 3.475 2.113.05 9.033 0 9.033 0l12.506-52.11m-81.985 33.35c1.834-6.516 4.509-13.582 4.169-19.454-.368-6.28-5.634-11.998-9.032-13.2-10.234-3.613-19.815 1.438-23.623 5.558-4.926 5.336-6.594 11.569-8.338 20.15-1.298 6.37-2.362 13.095 0 18.063 4.182 8.783 17.224 6.865 31.266 6.949 2.084-5.586 3.807-11.86 5.558-18.066zm24.318-25.706c2 14.548-5.676 30.606-10.964 44.57 5.392.487 10.117-.075 10.457.327.354.521-3.614 16.668-4.997 16.71-4.279.111-18.459.229-24.372.229-19.295 0-37.345 1.257-46.55-8.337-3.738-3.898-6.323-10.583-6.949-15.286-1.042-7.851.264-16.495 2.085-23.622 1.647-6.435 3.758-12.507 6.948-18.066C175.328 8.507 189.432-1.998 213.075.427c4.586.472 11.172 2.48 15.286 4.863.284.167 1.279.959 1.507 1.098 5.559 3.537 10.624 11.978 11.694 19.746zm-85.369-7.56c-1.167 5.315-2.334 11.34-3.564 16.592h-19.454c1.507-5.822 2.661-11.61 4.169-16.675 6.225 0 12.013.083 18.85.083M132.48 40.03h18.76c-2.453 13.576-7.31 35.475-11.117 50.719-2.383 9.54-3.974 16.501-10.422 21.538-.577.452-.91.237-1.39.695-1.188 1.133-6.684 2.447-9.726 2.779-4.947.536-10.54.07-16.62-.055 1.591-5.815 3.391-12.798 4.809-18.01 14.82 1.794 15.195-12.214 18.064-25.706 1.66-7.796 6.691-28.834 7.642-31.96" fill="#1A1918"/><g fill="#21609B"><path d="M88.708 75.464l-.402 1.042c-6.85 13.34-18.989 21.524-36.303 21.885-8.094.167-15.806-1.91-20.844-4.168C20.287 89.338 11.142 80.279 6.148 70.6c-7.164-13.875-8.456-33.176 6.44-47.592.23 0-1.807 3.126-1.577 3.126l-.41 1.334C-.133 61.074 32.938 89.874 65.086 86.58c7.726-.792 17.578-5.023 23.622-11.116"/><path d="M69.254 61.568c8.088.055 16.536-3.725 21.539-9.032-4.377 11.11-17.05 18.251-34.044 15.98-14.23-1.904-27.785-16.223-29.181-30.571-1.021-10.442 2.618-16.674 8.615-24.234-2.084 3.954-2.863 7.003-3.057 8.948-2.278 22.588 18.044 38.79 36.128 38.909"/><path d="M89.98 33.512c-1.257 2.884-8.496 8.33-11.693 9.011-12.659 2.697-20.766-3.306-25.013-10.137-.631-1.02-1.798-3.806-2.007-4.515-1.647-5.6-.89-14.07 4.023-18.454-1.48 4.169-1.696 9.011-.917 12.159.472 1.903 1.91 5.226 3.349 7.316 2.618 3.807 4.279 4.732 7.642 6.754 1.515.91 3.14 1.64 3.842 1.84 3.189.939 9.922 3.412 20.775-3.974"/></g></g></svg><svg width="64" height="64" viewBox="0 0 512 146" id="tech-logos--mongodb" y="378" xmlns="http://www.w3.org/2000/svg"><g fill="none" fill-rule="evenodd"><path d="M476.713 60.463c-.46.092-.922 1.107-.922 1.66-.092 3.692-.184 13.474-.184 20.118 0 .185.276.554.553.554 1.384.092 4.706.184 7.567.184 3.968 0 6.275-.553 7.568-1.106 3.321-1.662 4.89-5.261 4.89-9.23 0-8.95-6.275-12.365-15.596-12.365-.646-.092-2.49-.092-3.876.185zm23.81 41.25c0-9.136-6.737-14.212-18.918-14.212-.554 0-4.43-.092-5.353.092-.277.093-.645.278-.645.555 0 6.551-.093 16.98.184 21.04.184 1.753 1.477 4.245 3.046 4.983 1.66.923 5.444 1.107 8.028 1.107 7.29 0 13.658-4.06 13.658-13.565zm-42.634-46.325c.922 0 3.69.276 10.796.276 6.737 0 12.089-.184 18.641-.184 8.028 0 19.102 2.86 19.102 14.857 0 5.906-4.153 10.613-9.597 12.92-.276.092-.276.276 0 .368 7.751 1.939 14.581 6.737 14.581 15.78 0 8.86-5.537 14.489-13.566 17.996-4.891 2.122-10.981 2.86-17.164 2.86-4.707 0-17.349-.553-24.362-.368-.738-.278.646-3.6 1.291-4.153 1.662-.093 2.953-.185 4.707-.739 2.492-.645 2.768-1.384 3.137-5.167.185-3.23.185-14.674.185-22.794 0-11.166.093-18.733 0-22.424-.092-2.86-1.107-3.784-3.137-4.338-1.57-.276-4.153-.646-6.276-.922-.462-.462 1.107-3.6 1.662-3.968zm-53.248 57.399c2.216 1.752 6.553 2.49 10.429 2.49 4.983 0 9.966-.921 14.765-5.26 4.891-4.428 8.305-11.257 8.305-22.146 0-10.429-3.968-18.919-12.089-23.901-4.614-2.862-10.52-4.06-17.349-4.06-2.03 0-3.968.092-5.167.645-.278.185-.923 1.015-.923 1.476-.185 1.846-.185 16.057-.185 24.363 0 8.582 0 20.579.185 21.963 0 1.385.645 3.507 2.03 4.43zm-20.948-57.4c1.754 0 8.49.277 11.72.277 5.815 0 9.967-.276 20.948-.276 9.228 0 16.98 2.491 22.517 7.197 6.736 5.814 10.244 13.843 10.244 23.624 0 13.935-6.368 21.964-12.736 26.578-6.366 4.706-14.672 7.474-26.484 7.474-6.275 0-17.072-.184-26.024-.277h-.092c-.461-.83.738-4.06 1.476-4.152 2.4-.277 3.046-.37 4.246-.83 1.937-.739 2.307-1.754 2.584-5.168.276-6.368.184-14.027.184-22.702 0-6.182.092-18.272-.093-22.148-.276-3.229-1.66-4.06-4.429-4.614-1.384-.276-3.23-.646-5.813-.922-.37-.647 1.291-3.507 1.752-4.06z" fill="#8E714E"/><path d="M272.033 116.385c-2.307-.277-3.968-.645-5.998-1.568-.277-.185-.739-1.107-.739-1.477-.184-3.23-.184-12.458-.184-18.64 0-4.984-.83-9.321-2.953-12.366-2.492-3.508-6.09-5.537-10.705-5.537-4.06 0-9.505 2.768-14.027 6.644-.092.092-.83.739-.738-.277 0-1.015.185-3.045.277-4.43.093-1.292-.646-1.937-.646-1.937-2.953 1.476-11.258 3.414-14.304 3.69-2.214.463-2.768 2.585-.46 3.323h.092c2.49.738 4.152 1.569 5.443 2.4.923.738.831 1.753.831 2.584.092 6.92.092 17.533-.184 23.347-.092 2.307-.738 3.137-2.4 3.506l.185-.092c-1.292.277-2.307.553-3.876.738-.554.554-.554 3.507 0 4.153 1.015 0 6.367-.277 10.798-.277 6.09 0 9.228.277 10.796.277.646-.738.831-3.507.462-4.153-1.754-.092-3.046-.276-4.245-.646-1.661-.37-2.123-1.199-2.216-3.137-.183-4.892-.183-15.227-.183-22.24 0-1.938.553-2.861 1.106-3.415 2.123-1.845 5.538-3.137 8.583-3.137 2.953 0 4.89.923 6.367 2.123 2.03 1.66 2.676 4.06 2.953 5.813.461 3.968.277 11.812.277 18.641 0 3.691-.277 4.614-1.66 5.075-.647.277-2.308.647-4.246.83-.646.647-.461 3.508 0 4.154 2.676 0 5.814-.277 10.428-.277 5.721 0 9.413.277 10.89.277.46-.554.645-3.23.276-3.969zm25.562-35.25c-4.89 0-7.936 3.783-7.936 9.688 0 5.999 2.676 12.92 10.243 12.92 1.292 0 3.692-.554 4.798-1.846 1.754-1.66 2.954-4.983 2.954-8.49 0-7.659-3.784-12.273-10.059-12.273zm-.646 40.787c-1.845 0-3.138.554-3.968 1.016-3.876 2.49-5.629 4.89-5.629 7.752 0 2.675 1.015 4.797 3.23 6.643 2.676 2.307 6.367 3.415 11.073 3.415 9.413 0 13.566-5.076 13.566-10.058 0-3.508-1.754-5.815-5.352-7.106-2.584-1.108-7.29-1.662-12.92-1.662zm.646 23.994c-5.629 0-9.69-1.2-13.196-3.876-3.415-2.584-4.891-6.46-4.891-9.136 0-.738.185-2.769 1.846-4.614 1.014-1.108 3.23-3.23 8.49-6.829.184-.092.276-.184.276-.37 0-.184-.185-.369-.369-.46-4.337-1.661-5.629-4.338-5.999-5.814v-.185c-.091-.554-.276-1.107.555-1.661.646-.461 1.569-1.015 2.583-1.66 1.569-.924 3.23-1.939 4.245-2.77.185-.184.185-.368.185-.553 0-.185-.185-.37-.37-.461-6.458-2.123-9.688-6.922-9.688-14.12 0-4.706 2.122-8.951 5.905-11.627 2.584-2.03 9.044-4.522 13.289-4.522h.277c4.337.092 6.736 1.015 10.15 2.215 1.846.646 3.6.922 6 .922 3.598 0 5.167-1.107 6.458-2.398.093.184.278.646.37 1.845.092 1.2-.277 2.953-1.2 4.245-.738 1.015-2.399 1.754-4.06 1.754h-.462c-1.661-.185-2.4-.37-2.4-.37l-.368.185c-.092.185 0 .369.092.646l.093.185c.184.83.553 3.321.553 3.968 0 7.567-3.045 10.888-6.275 13.38-3.138 2.307-6.736 3.783-10.797 4.153-.092 0-.46 0-1.292.092-.461 0-1.107.093-1.2.093h-.092c-.738.184-2.583 1.107-2.583 2.675 0 1.384.83 3.046 4.798 3.323.83.092 1.66.092 2.584.185 5.26.368 11.812.83 14.857 1.845 4.245 1.568 6.921 5.352 6.921 9.874 0 6.83-4.89 13.197-13.011 17.164-3.968 1.754-7.937 2.677-12.274 2.677zm52.6-64.32c-1.937 0-3.691.46-4.983 1.383-3.598 2.215-5.444 6.645-5.444 13.104 0 12.09 6.09 20.58 14.765 20.58 2.584 0 4.614-.739 6.367-2.215 2.676-2.216 4.061-6.645 4.061-12.828 0-11.996-5.999-20.025-14.765-20.025zm1.662 39.496c-15.688 0-21.317-11.535-21.317-22.332 0-7.567 3.045-13.381 9.135-17.534 4.338-2.676 9.506-4.152 14.12-4.152 11.996 0 20.394 8.582 20.394 20.948 0 8.397-3.322 15.041-9.69 19.102-3.045 2.03-8.305 3.968-12.643 3.968h.001zM187.411 81.595c-1.938 0-3.691.461-4.984 1.384-3.598 2.215-5.444 6.645-5.444 13.104 0 12.09 6.09 20.58 14.765 20.58 2.584 0 4.614-.739 6.368-2.215 2.675-2.216 4.06-6.645 4.06-12.828 0-11.996-5.906-20.025-14.765-20.025zm1.661 39.497c-15.688 0-21.317-11.535-21.317-22.332 0-7.567 3.045-13.381 9.135-17.534 4.338-2.676 9.506-4.152 14.12-4.152 11.997 0 20.394 8.582 20.394 20.948 0 8.397-3.322 15.041-9.69 19.102-2.953 2.03-8.213 3.968-12.642 3.968zm-105.478-.923c-.185-.276-.37-1.107-.277-2.122 0-.739.185-1.2.277-1.384 1.938-.278 2.953-.555 4.06-.831 1.846-.462 2.584-1.476 2.676-3.783.278-5.537.278-16.058.185-23.348v-.185c0-.83 0-1.846-1.015-2.584-1.477-.922-3.23-1.752-5.537-2.4-.83-.275-1.384-.737-1.292-1.29 0-.554.554-1.2 1.754-1.385 3.045-.277 10.98-2.214 14.118-3.599.185.184.462.739.462 1.477l-.092 1.014c-.093 1.016-.185 2.216-.185 3.415 0 .369.37.646.738.646.185 0 .37-.092.554-.185 5.906-4.614 11.258-6.275 14.026-6.275 4.523 0 8.03 2.123 10.706 6.552.184.278.369.37.646.37.184 0 .46-.092.553-.277 5.445-4.153 10.89-6.645 14.488-6.645 8.582 0 13.658 6.368 13.658 17.165 0 3.045 0 7.013-.092 10.613 0 3.229-.092 6.182-.092 8.305 0 .46.645 1.937 1.66 2.214 1.292.646 3.046.923 5.353 1.292h.092c.185.646-.184 3.045-.553 3.507-.554 0-1.385 0-2.307-.092a136.208 136.208 0 0 0-7.014-.185c-5.721 0-8.674.092-11.536.277-.183-.738-.276-2.953 0-3.507 1.662-.276 2.492-.554 3.508-.83 1.846-.554 2.307-1.385 2.4-3.784 0-1.753.368-16.703-.186-20.302-.553-3.691-3.322-8.028-9.413-8.028-2.307 0-5.905.923-9.412 3.598-.184.185-.37.646-.37.923v.093c.37 1.937.37 4.153.37 7.567v5.998c0 4.153-.093 8.029 0 10.981 0 2.031 1.2 2.492 2.215 2.862.554.091.922.184 1.384.276.83.185 1.661.37 2.953.646.185.37.185 1.569-.092 2.584-.093.554-.278.83-.37.923-3.137-.092-6.367-.185-11.073-.185-1.384 0-3.784.093-5.814.093-1.662 0-3.23.092-4.152.092-.093-.185-.278-.83-.278-1.846 0-.83.185-1.476.37-1.661.461-.092.83-.184 1.292-.184 1.106-.185 2.03-.37 2.952-.554 1.57-.461 2.123-1.292 2.215-3.322.277-4.614.554-17.81-.092-21.133-1.107-5.352-4.152-8.028-9.044-8.028-2.86 0-6.46 1.384-9.412 3.6-.462.368-.831 1.29-.831 2.121v5.445c0 6.644 0 14.95.092 18.549.093 1.106.461 2.399 2.584 2.86.462.092 1.2.277 2.123.37l1.66.276c.186.554.093 2.769-.276 3.507-.923 0-2.03-.092-3.323-.092a150.02 150.02 0 0 0-7.197-.185c-3.23 0-5.537.092-7.383.185-1.292-.185-2.307-.185-3.414-.185z" fill="#442D22"/><path d="M35.053 142.317l-3.783-1.293s.462-19.286-6.46-20.67c-4.613-5.353.74-227.013 17.35-.739 0 0-5.722 2.86-6.737 7.752-1.108 4.799-.37 14.95-.37 14.95z" fill="#FFF"/><path d="M35.053 142.317l-3.783-1.293s.462-19.286-6.46-20.67c-4.613-5.353.74-227.013 17.35-.739 0 0-5.722 2.86-6.737 7.752-1.108 4.799-.37 14.95-.37 14.95z" fill="#A6A385"/><path d="M37.084 123.676s33.13-21.779 25.377-67.09c-7.474-32.943-25.1-43.74-27.038-47.893C33.301 5.74 31.27.573 31.27.573l1.385 91.634c0 .093-2.861 28.054 4.43 31.47" fill="#FFF"/><path d="M37.084 123.676s33.13-21.779 25.377-67.09c-7.474-32.943-25.1-43.74-27.038-47.893C33.301 5.74 31.27.573 31.27.573l1.385 91.634c0 .093-2.861 28.054 4.43 31.47" fill="#499D4A"/><path d="M29.333 124.875S-1.767 103.65.079 66.277C1.832 28.903 23.795 10.539 28.04 7.217c2.769-2.953 2.861-4.061 3.046-7.014 1.938 4.153 1.569 62.106 1.845 68.934.83 26.3-1.476 50.756-3.598 55.738z" fill="#FFF"/><path d="M29.333 124.875S-1.767 103.65.079 66.277C1.832 28.903 23.795 10.539 28.04 7.217c2.769-2.953 2.861-4.061 3.046-7.014 1.938 4.153 1.569 62.106 1.845 68.934.83 26.3-1.476 50.756-3.598 55.738z" fill="#58AA50"/></g></svg><svg width="64" height="64" viewBox="0 0 256 282" preserveAspectRatio="xMinYMin meet" id="tech-logos--nodejs-icon" x="322" y="64" xmlns="http://www.w3.org/2000/svg"><g fill="#8CC84B"><path d="M116.504 3.58c6.962-3.985 16.03-4.003 22.986 0 34.995 19.774 70.001 39.517 104.99 59.303 6.581 3.707 10.983 11.031 10.916 18.614v118.968c.049 7.897-4.788 15.396-11.731 19.019-34.88 19.665-69.742 39.354-104.616 59.019-7.106 4.063-16.356 3.75-23.24-.646-10.457-6.062-20.932-12.094-31.39-18.15-2.137-1.274-4.546-2.288-6.055-4.36 1.334-1.798 3.719-2.022 5.657-2.807 4.365-1.388 8.374-3.616 12.384-5.778 1.014-.694 2.252-.428 3.224.193 8.942 5.127 17.805 10.403 26.777 15.481 1.914 1.105 3.852-.362 5.488-1.274 34.228-19.345 68.498-38.617 102.72-57.968 1.268-.61 1.969-1.956 1.866-3.345.024-39.245.006-78.497.012-117.742.145-1.576-.767-3.025-2.192-3.67-34.759-19.575-69.5-39.18-104.253-58.76a3.621 3.621 0 0 0-4.094-.006C91.2 39.257 56.465 58.88 21.712 78.454c-1.42.646-2.373 2.071-2.204 3.653.006 39.245 0 78.497 0 117.748a3.329 3.329 0 0 0 1.89 3.303c9.274 5.259 18.56 10.481 27.84 15.722 5.228 2.814 11.647 4.486 17.407 2.33 5.083-1.823 8.646-7.01 8.549-12.407.048-39.016-.024-78.038.036-117.048-.127-1.732 1.516-3.163 3.2-3 4.456-.03 8.918-.06 13.374.012 1.86-.042 3.14 1.823 2.91 3.568-.018 39.263.048 78.527-.03 117.79.012 10.464-4.287 21.85-13.966 26.97-11.924 6.177-26.662 4.867-38.442-1.056-10.198-5.09-19.93-11.097-29.947-16.55C5.368 215.886.555 208.357.604 200.466V81.497c-.073-7.74 4.504-15.197 11.29-18.85C46.768 42.966 81.636 23.27 116.504 3.58z"/><path d="M146.928 85.99c15.21-.979 31.493-.58 45.18 6.913 10.597 5.742 16.472 17.793 16.659 29.566-.296 1.588-1.956 2.464-3.472 2.355-4.413-.006-8.827.06-13.24-.03-1.872.072-2.96-1.654-3.195-3.309-1.268-5.633-4.34-11.212-9.642-13.929-8.139-4.075-17.576-3.87-26.451-3.785-6.479.344-13.446.905-18.935 4.715-4.214 2.886-5.494 8.712-3.99 13.404 1.418 3.369 5.307 4.456 8.489 5.458 18.33 4.794 37.754 4.317 55.734 10.626 7.444 2.572 14.726 7.572 17.274 15.366 3.333 10.446 1.872 22.932-5.56 31.318-6.027 6.901-14.805 10.657-23.56 12.697-11.647 2.597-23.734 2.663-35.562 1.51-11.122-1.268-22.696-4.19-31.282-11.768-7.342-6.375-10.928-16.308-10.572-25.895.085-1.619 1.697-2.748 3.248-2.615 4.444-.036 8.888-.048 13.332.006 1.775-.127 3.091 1.407 3.182 3.08.82 5.367 2.837 11 7.517 14.182 9.032 5.827 20.365 5.428 30.707 5.591 8.568-.38 18.186-.495 25.178-6.158 3.689-3.23 4.782-8.634 3.785-13.283-1.08-3.925-5.186-5.754-8.712-6.95-18.095-5.724-37.736-3.647-55.656-10.12-7.275-2.571-14.31-7.432-17.105-14.906-3.9-10.578-2.113-23.662 6.098-31.765 8.006-8.06 19.563-11.164 30.551-12.275z"/></g></svg><svg width="64" height="64" viewBox="0 0 256 100" preserveAspectRatio="xMinYMin meet" id="tech-logos--npm" x="322" xmlns="http://www.w3.org/2000/svg"><path d="M0 0v85.498h71.166V99.83H128V85.498h128V0H0z" fill="#CB3837"/><path d="M42.502 14.332h-28.17v56.834h28.17V28.664h14.332v42.502h14.332V14.332H42.502zm42.996 0v71.166h28.664V71.166h28.17V14.332H85.498zM128 56.834h-13.838v-28.17H128v28.17zm56.834-42.502h-28.17v56.834h28.17V28.664h14.332v42.502h14.332V28.664h14.332v42.502h14.332V14.332h-57.328z" fill="#FFF"/></svg><svg width="64" height="64" viewBox="0 0 256 256" preserveAspectRatio="xMinYMin meet" id="tech-logos--postcss" x="192" y="250" xmlns="http://www.w3.org/2000/svg"><g fill="#DD3735"><path d="M255.902 121.097c-.086-3.284-.26-6.654-.432-9.938-.173-3.37-.26-6.74-.605-10.11-.605-4.582-1.21-9.248-2.247-13.742-.778-3.716-2.074-7.259-3.37-10.802-1.642-4.149-3.284-8.383-5.358-12.358-3.371-6.395-7.778-12.099-11.84-18.062-2.68-3.803-6.135-6.914-8.728-10.802-1.47-2.247-3.63-4.149-5.79-5.877-3.457-2.765-7.087-5.272-10.716-7.69-2.766-1.903-5.531-3.717-8.47-5.359-2.333-1.297-4.84-2.334-7.26-3.457-2.764-1.297-5.443-2.852-8.554-3.457-.778-.173-1.47-.432-2.247-.69-1.988-.693-3.89-1.47-5.877-2.075-3.024-.95-5.962-2.075-9.074-2.852-3.024-.778-6.135-1.297-9.246-1.729-3.457-.518-7-.69-10.457-1.037-2.247-.259-4.494-.518-6.655-.605-3.283-.172-6.654-.172-9.938-.259-1.642-.086-3.37-.259-5.012-.173-2.506.087-5.012.346-7.52.692-2.418.26-4.838.691-7.172 1.037-2.851.345-5.703.518-8.555.864-2.68.346-5.444.864-8.123 1.296-.951.173-1.902.52-2.852.691-2.074.433-4.235.606-6.31 1.297-3.715 1.123-7.431 2.42-11.061 3.802-3.37 1.383-6.654 2.852-9.851 4.581-3.284 1.814-6.395 3.975-9.507 6.05-2.938 1.986-5.876 4.061-8.728 6.308-2.765 2.16-5.358 4.58-7.864 7-1.383 1.382-2.506 3.024-3.803 4.58-2.16 2.506-4.321 4.926-6.395 7.518C24.557 47.9 23 50.147 21.36 52.394c-2.94 3.975-5.445 8.21-7.778 12.444-.951 1.728-1.815 3.457-2.68 5.185-1.296 2.593-2.678 5.1-3.888 7.778-.864 1.815-1.556 3.802-2.074 5.79a698.06 698.06 0 0 0-3.543 12.79C.36 100.183.1 104.16.014 108.048c-.087 3.456.259 6.827.605 10.284.086.864-.432 1.901.605 2.592.086 0 0 .346-.087.432-.26.52 0 1.037.519 1.21 0 0 .086.087.086.173H1.31c-.26.778.605 1.383.259 2.247-.086.173.26.518.432.778 0 .26-.086.605 0 .864.087.778.433 1.555.433 2.42 0 .605.518 1.296.69 1.901.087.26 0 .691-.172.864-.518.605-.432 1.124.346 1.47.173.086.432.431.432.604 0 .52-.173 1.037-.26 1.556.173.173.26.345.173.518 0 .26-.26.52-.172.692.69 1.382.95 2.938 1.037 4.493 0 .346.173.692.345 1.124.087 0 .346 0 .519.086l-.52 1.556c.433-.26.779-.346 1.21-.519.26 1.124.52 2.161.865 3.111.087.173.26.346.519.52-.087.172-.087.517-.26.604.346 1.555.519 3.025 1.124 4.494.087 0 .173-.087.259-.087-.26-1.555-.432-3.197-.691-4.753v-.518s.173-.087.259-.087c.087.346.26.778.26 1.037.69 0 1.728.432 2.419.432.087-.259.173-.605.26-.777-.52-.519-.951-1.297-1.47-1.815.173.691 0 .95 0 1.21a16.628 16.628 0 0 0-1.21-.519c.346-.432.692-.864 1.21-1.383 0-.777-.432-1.469-1.642-1.382.519-.173 1.038-.432 1.642-.605.087.26.173.518.26.691.69-1.21-.346-2.16-.346-3.37.086-1.469-.778-2.938-1.037-4.494-.432-2.42-.346-6.049-.605-8.469 0-.173-.26-.346-.432-.519-.087.087-.52 1.21-.605 1.297.259 2.074.518 4.148.69 6.222-.085 0-.172 0-.172.086-.345-1.815-.691-3.716-1.123-5.79-.086.605-.173.864-.173 1.21-.26-.086-.345-.173-.778-.346.346.778.692 1.297.95 1.902-.604-.26-1.295-.173-1.295-.173v2.42c-.864-.865-1.124-1.556-1.556-2.16-.173-.692-.26-1.384-.432-2.075l.259-.087c-.086-.345-.26-.605-.26-.864a67.673 67.673 0 0 1-.258-2.074c.086-.086.432-.173.605-.345l-.692-1.037c.692.086 1.124.172 1.556.172 0-.172.086-.259 0-.345-.864-.778-.26-1.47.086-2.16.173-.347.778-.433.95-.779.692-1.296 1.816-2.333 1.816-3.975 0-.778.259-1.642.345-2.42.173-1.469.346-2.938.433-4.407.172-1.9 0-3.803.432-5.617.69-3.025 1.555-6.05 2.506-9.074.69-2.16 1.469-4.235 2.333-6.395 1.297-3.37 2.506-6.74 4.148-9.939 2.334-4.666 5.013-9.16 7.605-13.74 1.642-2.852 3.37-5.53 5.185-8.297 1.729-2.679 3.457-5.444 5.445-7.95 2.765-3.543 5.79-6.827 9.16-9.766 3.457-3.11 6.74-6.308 10.457-9.16 4.84-3.716 9.938-7 15.383-9.852 4.407-2.333 8.987-4.148 13.568-5.877 2.938-1.123 6.135-1.64 9.16-2.592 3.457-1.124 6.914-1.642 10.543-1.729 2.334-.086 4.58-.345 6.914-.604 2.074-.173 4.148-.346 6.395-.605a3.809 3.809 0 0 0-.432.691c-.951 1.383-1.988 2.765-2.938 4.148-.778 1.124-1.642 2.333-2.42 3.457-1.383 1.815-2.852 3.63-4.148 5.531-1.988 2.852-3.803 5.79-5.877 8.642-2.074 2.765-4.321 5.358-6.481 8.037-2.852 3.716-5.531 7.518-8.383 11.234-2.593 3.544-5.358 6.914-7.864 10.457-2.247 3.111-4.235 6.395-6.395 9.593-3.198 4.753-6.395 9.42-9.593 14.172a817.832 817.832 0 0 1-7.605 10.803c-.173.26-.432.346-.691.518-.173.173-.52.346-.52.52-.171.604-.171 1.21-.431 1.727-.691 1.297-1.382 2.593-2.16 3.803-.432.691-1.037 1.296-1.556 1.987-.173-.086-.26-.172-.432-.172.346-.865 1.815-1.383 1.124-2.679-.432.691-.865 1.296-1.297 1.987l-1.037 2.074c.346.26.95.432.346.951-.26.432-.52.95-.778 1.383.087 0 .087.086.173.086.259-.346.519-.605.778-.95.086 0 .173.086.259.086-.26.864-.778 1.642-1.21 2.42-.346.691-1.21 1.21-1.815 1.728.087.086.692.346.778.432.259-.346.346-.173.605-.518.173.26.432-.173.519.086.259-.346.518-.605.605-.864.345-.864.864-1.556 1.728-1.9.346-.174.605-.434.864-.693 2.593-2.679 5.272-5.27 7.605-8.123 3.63-4.408 6.914-8.988 10.37-13.482 1.47-1.9 3.198-3.802 4.753-5.617.173.087.346.087.433.173-.173 1.815-.346 3.716-.433 5.531-.26 3.197-.432 6.395-.691 9.68-.086 1.295 0 2.591-.086 3.888 0 .345-.26.604-.26.95 0 .864.26 1.815.26 2.68-.26 3.197-.605 6.308-.865 9.505-.086.692.26 1.383.433 1.988-.087-.086-.173-.173-.433-.346 0 5.013.95 9.94.173 14.865.346-.087.519-.173.519-.346.086-.605.259-1.21.259-1.815.087-.518 0-1.037 0-1.642v-.864c.087-1.556.432-3.198.259-4.753-.172-1.729-.172-3.37.173-5.013.173-.69-.086-1.555.346-2.419v1.296c-.087 4.926.086 9.852-.605 14.778-.086.432.259 1.21-.691 1.123-.087 0-.173.432-.346.692-.432.864.518 1.987-.346 2.851-.173.173.173.951.259 1.47 0 .172.087.345 0 .432-.345.605-.345.605.173.691.087 1.901.26 3.63.346 5.444h.259c1.124-3.284.432-6.654 1.037-10.024.087 1.382.173 2.765.087 4.234 0 2.247-.087 4.408-.173 6.655 0 .432-.087.864-.173 1.296-.26 1.21-.346 2.42-.778 3.543-.345.864-.173 2.161-.173 3.198v3.283c0 .087.26.346.26.692.086.778-.346 1.556-.087 2.42.087.173-.086.432-.173.605-.086.26-.172.518-.086.777l.259 1.297c0 .086.087.173.173.345.087-.345.087-.605.087-.69 1.469.172.69 1.468 1.382 2.16-.345.172-.605.26-.605.345.087.346.26.605.26.951 0 .777-.087 1.47-.173 2.247 0 1.987-.087 3.975-.087 5.876 0 .26.087.52.087.778 0 .173-.087.346-.087.605v1.815h.346c-.173.26-.346.518-.605.777-.086 0-.346 0-.346-.086v-10.889h-1.296c-.173 5.185.259 9.852-.691 14.691-1.037.087-1.383.26-2.506.26-2.68 0-5.358 0-8.037.086-3.198 0-6.31.087-9.507.087-1.555 0-3.197.172-4.753.172-2.074 0-4.234-.259-6.308-.259-3.198 0-6.31.26-9.506.346-2.334.086-4.667.086-7 .173-1.556.086-3.112.173-4.667.345-.691.087-1.296.346-2.161.605-.26 0-.864-.086-1.382 0-.864.173-1.642.692-2.506.864-1.297.26-1.642.605-1.47 1.902v.864a2.588 2.588 0 0 0-.605-.432c-.086 0-.172.086-.172.086.086.26.259.432.345.692.346-.173.778-.605 1.124-.605h1.21c-.173 0-.26.518-.52.95a66.78 66.78 0 0 0 1.557-.605c.086.26.086.605.086.692 1.21-.087 2.333-.432 3.37-.173 3.37.864 6.828 1.21 10.284 1.555 2.247.173 4.408.26 6.655.346 3.197.173 6.395.346 9.592.346 2.679 0 5.272-.259 7.95-.259 3.717 0 7.433.172 11.149.26.778 0 1.642-.088 2.506-.088h6.309c5.617-.172 11.234-.259 16.852-.432 3.197-.086 6.48-.259 9.679-.345l9.85-.26c3.804-.086 7.606-.086 11.322-.173 2.852 0 5.618-.086 8.469-.172 3.198-.087 6.482-.346 9.679-.519 1.729-.086 3.457-.259 5.186-.432 2.074-.173 4.234-.432 6.308-.519 3.11-.172 6.309-.259 9.42-.432 3.889-.259 7.778-.605 11.753-.69 3.63-.174 7.346-.087 10.975-.174 3.198-.086 6.395-.259 9.679-.345l5.445-.26s3.629-.086 5.444-.259c3.11-.173 6.222-.519 9.333-.605 1.988-.086 3.976 0 5.963-.086 3.198-.087 6.482-.26 9.679-.26 1.21 0 2.507.173 4.062.26-.691.605-1.123.95-1.642 1.382.346.087.69.26 1.037.432 0 .087-.086.173-.086.346-.432 0-.864.087-1.297.087-.172.432-.345.604-.518 1.47h1.555c-.604 0-1.123.776-1.728 1.295.087.086.173.086.259.173-.95-.346-1.555-.173-1.901.778.259.086.432.086.69.086-.085.26-.171.52-.258.864-.086.173-.173.346-.173.605l-.26-.259c0-.173 0-.346-.085-.519-.52.52-1.297.865-.865 1.988-.345.173-.777.346-1.21.605.087.173.26.346.346.605-.777.086-1.555.26-1.382 1.21.345.086.69.26.95.345-.432.173-.864.432-1.296.605-.087.173-.173.605-.346.692-1.21.26-.518.691-.173 1.123-.26.173-.518.346-.777.432.259.087.432.173.605.346-.26.173-.433.26-.605.346.172.086.432.26.518.26-.346.258-.778.604-1.296 1.036 0 .173 0 .26.086.432-.345.346-.691.691-1.037 1.21-.345.518-.518 1.21-.95 1.728-1.815 1.988-3.112 4.321-5.445 5.877-.864.605-1.642 1.382-2.42 2.16-1.555 1.47-2.938 3.111-4.58 4.494-2.16 1.815-4.407 3.457-6.741 5.1-2.851 1.986-5.703 3.974-8.555 5.875-1.556 1.037-3.284 1.815-4.926 2.766-1.642.95-3.197 1.815-4.84 2.765-1.037.692-1.987 1.642-3.111 2.161-2.852 1.21-5.876 2.247-8.814 3.37-.26.086-.432.173-.692.26-2.16.95-4.234 1.987-6.395 2.765-1.988.691-4.061 1.21-6.136 1.642-.691.173-1.47 0-2.246.086-1.47.26-2.94.605-4.408.778-3.802.52-7.605.864-11.407 1.383-2.247.26-4.408.691-6.655.95-1.555.087-3.197-.086-4.753-.086-1.123 0-2.333.26-3.457.086-1.814-.259-3.63-.69-5.444-1.037-.432-.086-1.037-.259-1.383-.086-.691.345-1.296-.173-1.987 0-.432.086-.864-.259-1.297-.259-.345-.087-.777.086-1.21 0-.95-.26-1.814-.605-2.851-.519-1.037.087-2.074-.432-3.198-.69-1.555-.347-3.024-.693-4.58-1.038-.605-.173-1.123-.432-1.728-.778-.173.086-.433.26-.778.26-1.47-.26-2.938-.346-4.321-.865-1.21-.432-2.333-1.037-3.63-.864-.345.086-.605-.087-.95-.087-.26-.345-.52-1.037-.778-1.037-1.73.087-2.766-1.382-4.235-1.814-.778-.26-1.382-1.124-2.16-1.383-1.901-.778-3.457-2.42-5.617-2.679-.692-.087-1.383-.432-2.161-.692.259.346.432.605.69.865l-.172.172c-2.333-1.382-4.666-2.765-7-4.06-.345-.088-.604-.433-.864-.606l-2.333-1.556c-.26-.173-.778-.432-.778-.346-.518.606-1.037.087-1.382-.086-2.334-1.642-5.013-2.679-7.26-4.494-.95-.777-2.074-1.296-2.765-2.247-1.21-1.469-2.68-2.506-4.321-3.37-1.296-.69-2.506-1.469-3.716-2.247-.605-.432-1.21-.95-1.21-1.9 0-.606-.26-1.21-1.037-.865-.346-.519-.691-1.124-1.123-1.297-1.037-.432-1.73-1.209-2.507-1.9-.777-.692-1.382-1.643-2.333-1.988-1.728-.692-2.765-2.16-3.802-3.37-2.42-2.853-4.581-5.964-6.828-8.989-.172-.259-.518-.432-.777-.69l-.087.086c.432.864.864 1.642 1.297 2.506-.087.086-.26.173-.346.26-.52-.606-1.124-1.21-1.642-1.816-.087.087-.173.173-.26.173l6.223 9.852c.518.778.95 1.555 1.469 2.333a1.17 1.17 0 0 1-.346.26c-.95-.173-1.814-.865-2.247-1.643-.777-1.382-1.642-2.246-3.37-2.074-.173-.605-.346-1.296-.432-1.9-.346 0-.605 0-1.21-.087 1.21 1.901 2.247 3.543 3.37 5.444-.432-.259-.691-.432-.864-.518 1.556 1.642 2.679 3.716 4.667 4.753.432 1.987 2.679 2.938 3.197 4.84-.432-.087-.777-.174-1.21-.26-.691-.864-1.47-1.728-2.246-2.679.172.605.432 1.123.777 1.556 1.037 1.296 1.988 2.592 3.198 3.716.432.432 1.037.605 1.037 1.382.173-.173.346-.259.69-.432-.172.346-.258.52-.344.778.345 0 .605.086.864.086.173.52-.087 1.297.95 1.124.087 0 .173.086.26.173.432 1.123 1.123 1.123 2.074.691.173-.086.605 0 .69.173.433.95 1.038 1.037 1.816.346 0 .432.086.864.086 1.21h.346c0-.173-.086-.433-.086-.865.432.346.69.52.864.692.864 1.21 1.642 2.333 2.852 3.283 1.642 1.383 3.11 2.852 4.666 4.15 3.025 2.505 6.395 4.58 9.766 6.48 4.148 2.333 8.123 4.84 12.358 7.086 5.098 2.68 10.543 4.494 16.16 5.791 2.074.432 4.062.864 6.136 1.382 1.815.52 3.63 1.297 5.444 1.73 2.766.604 5.618 1.122 8.383 1.641.605.086 1.21.173 1.9.26v.172c.779 0 1.73-.346 1.903-.087.432.692.777.346 1.296.26.605-.173 1.296-.173 1.987-.173 2.42.086 4.753.605 7.173.432.519 0 1.297-.432 1.729.432.173-.087.259-.173.432-.259.345-.087.778-.087 1.123-.173v.173c-.173.086-.345.086-.691.173.432.086.69.172.95.26-.172.172-.26.172-.432.258-.172.086-.432.173-.777.432 3.11.605 6.049.692 8.642 0v-.518h.345c0 .172.087.345.173.518 3.975.346 7.864-.173 11.58-1.469.346.432.605 1.037 1.124.173.173-.259.605-.346.95-.432.778-.173 1.729-.519 2.42-.259.778.26 1.037-.433 1.642-.433a16.14 16.14 0 0 0 2.938-.259c.519-.086 1.037-.346 1.642-.518 0-.087 0-.173-.086-.26-.605-.086-1.296-.172-1.815-.172 1.037-.519 1.988-.95 2.938-1.383 0 .086.087.086.087.173-.26.086-.432.432-.778.432h1.21c-.26 0-.605.778-1.037 1.296 3.11-.778 5.963-1.469 8.728-2.16v-.173c-.345.086-.605.086-.864.173-.086-1.815 1.9-1.21 2.593-2.247-.865.26-1.73.518-2.593.691v-.173c2.938-1.296 5.963-2.592 8.9-3.889 0 .087.088.087.088.173-.52.346-1.037.605-1.815 1.037.518.087.864.087 1.123.173 0 .26 0 .432-.086.52 1.469-.088 1.123-1.384 1.555-2.162.26.086.605.26.865.173.777-.173 1.469-.432 2.246-.69.865-.26 1.729-.52 2.593-.866 1.383-.605 2.679-1.382 4.062-2.074.259-.086.69 0 1.037 0 .259 0 .432-.173.605-.345.345-.26.69-.778.95-.692 1.21.173 2.074-.259 2.42-1.382.087 0 .087-.087.173-.087.432-.345.864-.69 1.296-.95 1.902-1.038 3.716-2.074 5.618-3.112.086-.086.259 0 .432 0 .259 0 .605 0 .777-.086 1.124-.519 2.16-1.123 3.198-1.728-.26-.087 0-.173-.864-.26v-.173c.864-.172 1.123-.259 1.642-.432l-.173-.172c2.247-2.247 5.099-3.889 7.259-5.79.432.086.605.172.864.172.087-.259.087-.518.087-.69.345-.433.69-.952 1.123-1.297 1.9-1.729 3.976-3.198 5.704-5.013 2.506-2.506 4.926-5.098 7.173-7.777 2.074-2.42 4.148-4.84 5.876-7.519 2.42-3.716 4.494-7.518 6.654-11.407 1.556-2.766 2.939-5.53 4.494-8.297.173-.259.519-.604.778-.604 2.333-.26 4.667-.433 6.914-.692.518-.086 1.123-.432 1.642-.69-.26-.433-.433-.952-.692-1.384-.345-.519-.864-.95-1.21-1.469-.345-.432-.604-.95-.864-1.469-.26-.432-.518-.778-.778-1.21-.518-.95-1.037-1.9-1.47-2.938-.085-.26-.258-.692-.172-.95 1.556-3.37 2.16-7 3.63-10.37 1.469-3.458 1.9-7.347 2.593-11.063.605-3.543.95-7.086 1.382-10.63.26-2.506.605-4.926.692-7.432.518-3.975.345-7.69.259-11.407zm-217.26 96.444c-.603-.69-1.122-1.469-1.727-2.16l.259-.26c.95 1.038 1.902 2.074 2.852 3.198-.518-.259-1.123-.432-1.383-.778zm1.384.778c.259-.086.519-.086.778-.173.259.432.432.951.69 1.47-1.21-.087-1.814-.606-1.468-1.297zm89.876 35.691v-.259c1.642-.173 3.198-.346 4.84-.518v.26a45.946 45.946 0 0 1-4.84.517zm21.778-2.247c-1.21.26-2.506.432-3.716.605-.432.087-.95.52-1.123-.259-.173.086-.346.086-.52.173.433 1.296 1.47.26 2.334.778-1.901.26-3.716.432-5.53.691v-.173c.518-.086 1.123-.173 1.642-.259v-.259c-.865-.087-1.73-.173-2.593-.173-.26 0-.605.346-.864.432-.346.086-.692.173-1.124.173-1.47.086-2.938.086-4.321.173-.086 0-.26-.087-.345-.087v-.259c5.79-.778 11.494-1.556 17.284-2.333.086.172.086.345.172.518-.518 0-.864.173-1.296.26zm1.296-.864c1.988-.259 3.803-.432 5.704-.69-3.975 1.122-5.271 1.295-5.704.69zM77.705 76.42c2.766-3.803 5.617-7.606 8.383-11.495.864-1.123 1.555-2.333 2.42-3.456.259-.346.604-.519 1.037-.865l-.087-.172c.346-.433.69-.778.864-1.124.432-.69.692-1.469 1.037-2.247.087-.173.346-.345.346-.345 1.21.604 1.21-.692 1.642-1.124a61.142 61.142 0 0 0 2.247-2.679c.518-.69 1.037-1.296 1.469-2.074.086-.259-.173-.69-.26-1.037h-.258c.259-.173.518-.432.777-.605.087 0 .087 0 .173-.086.519-.778 1.037-1.556 1.556-2.247 1.037-1.383 2.16-2.766 3.37-3.976-.173.432-.346.865-.518 1.21.086 0 .086.087.172.087 1.037-1.383 2.16-2.679 3.198-4.062-.087-.086-.173-.173-.26-.173-.431.432-.777.864-1.21 1.296-.086-.086-.172-.172-.26-.172.866-1.124 1.73-2.247 2.594-3.544.173.26.346.605.69 1.297.347-.865.693-1.47.952-2.074-.26.26-.605.518-.864.777l-.26-.259 1.556-2.333c1.642-2.334 3.284-4.753 4.926-7.087.605-.864 1.383-1.555 1.9-2.419 1.643-3.284 4.236-5.877 6.223-8.902.433-.604 1.037-1.123 1.556-1.642.432-.518.778-.345 1.124.087 2.333 2.938 4.666 5.963 6.999 8.901 1.729 2.161 3.457 4.235 5.099 6.481 1.988 2.766 3.889 5.531 5.877 8.297 2.247 3.197 4.494 6.395 6.654 9.68 3.284 4.838 6.395 9.678 9.679 14.517 2.42 3.544 4.84 7 7.173 10.544h-4.408c-4.061-.087-8.21-.433-12.271-.26-5.531.26-11.148.864-16.68 1.296-7 .605-14.086.692-21.085.692-2.507 0-5.013.345-7.52.518-3.024.173-5.962.346-8.987.433-3.543.172-7 .26-10.543.345-1.987.087-4.062 0-6.222 0zm99.123 39.752v.778c-.086 0-.173.086-.346.086-.345-1.21-.691-2.506-1.123-3.716-.864-2.506-1.815-5.012-3.37-7.259-1.73-2.42-3.284-4.926-5.013-7.432-.432-.605-1.037-1.124-1.555-1.642-1.815-1.988-3.63-4.062-5.963-5.53a70.75 70.75 0 0 0-10.803-5.532c-1.037-.432-1.987-.95-3.024-1.555h2.074l14.778-.259c3.197-.087 6.308-.087 9.506-.26.778 0 1.21.26 1.642.951.778 1.296 1.555 2.592 2.419 3.89.087.171.26.431.26.69 0 1.901 0 3.89.086 5.79.087 1.988.259 3.89.346 5.877 0 1.987-.173 4.061-.087 6.135.087 2.94.173 5.963.173 8.988zM83.84 87.221c4.062-.173 7.95-.433 11.926-.605 3.11-.173 6.308-.26 9.419-.432 1.297-.087 2.507-.173 3.803 0-1.383.691-2.765 1.382-3.975 2.247-1.556 1.036-3.025 2.42-4.581 3.543-1.555 1.123-2.938 2.506-4.234 3.975-1.642 1.988-3.457 3.716-5.185 5.617-1.21 1.383-2.593 2.68-3.63 4.148-1.47 1.902-2.765 3.976-4.148 6.136.432-8.21.95-16.333.605-24.629zm56.432 83.135c-2.766.691-5.617 1.47-8.47 1.815-2.42.346-4.925.26-7.431.26-2.247 0-4.408-.087-6.655-.26-2.506-.259-5.012-.519-7.432-1.642-2.074-.95-4.234-1.815-6.308-2.852s-4.15-2.247-5.704-4.148c-1.124-1.383-2.68-2.506-4.062-3.716a4.073 4.073 0 0 0 1.815 2.506c-.432.52-1.037.26-1.901-1.123-.26.172-.52.26-.692.345.26-.605.519-1.209.778-1.728-.345-.69-.778-1.469-1.123-2.16a70.764 70.764 0 0 1-1.988-3.457c-.173-.26-.173-.519-.346-.778-.432-.519-.864-1.037-1.21-1.556-.691-1.037-1.296-2.16-2.16-3.197 0 .26.086.518.086.864-.086 0-.172.086-.172.086l-1.815-4.407c-.087 0-.087 0-.173.087l1.556 5.703c-.087 0-.173.087-.26.087-.26-.346-.518-.692-.691-1.124-.173-.69-.691-.69-1.124-.432-.26.173-.432.778-.345 1.037.605 1.47 1.296 2.938 1.987 4.408.173.518.346.95.605 1.47.087.172.346.344.346.604.346.691.605 1.382 1.037 1.987.778 1.037 1.642 2.074 2.42 3.111.778 1.037 1.469 2.161 2.16 3.198.087.173.346.173.432.26.433 1.295 1.902 2.246 2.939 1.728.259 1.987 2.419 2.68 3.284 4.58a39.795 39.795 0 0 1-2.507-1.124c-.086.087-.086.173-.172.346 1.037.518 2.074 1.037 3.024 1.642.864.518 1.729 1.037 2.506 1.642 1.038.95 2.247 1.47 3.717 1.815-.087-.26-.173-.346-.173-.346a277.903 277.903 0 0 1 6.827 3.284c-8.988.173-18.58.346-28.52.518 0-1.642-.085-3.197-.085-4.839 0-.69.173-1.296.086-1.988-.26-3.975-.26-7.95-.777-11.839-.52-4.148-.52-8.21-.432-12.358.086-2.247-.087-4.58-.173-6.827 0-3.025 0-5.963.086-8.988 0-.432.173-.778.346-1.21h.259c.086.173 0 .432.173.52.259.258.69.69.864.604.519-.346 1.296-.692 1.469-1.21.432-1.037.605-2.16.605-3.198 0-.777.346-1.296.69-1.815.174-.259.26-.518.434-.864-.346-.259-.692-.432-1.124-.777.346-.95.259-2.075 1.556-2.593.173-.087.173-.519.259-.778.086-.69.173-1.469.259-2.16.173.26.259.345.432.518.087-.173.173-.259.173-.259 0-.346-.086-1.037 0-1.037 1.037-.173.605-1.296 1.124-1.815.086-.086-.087-.346-.087-.518 0-.173 0-.433.087-.433 1.209-.259 1.037-1.555 1.814-2.16.26-.173.346-.432.692-.864.69 1.21-.52 1.815-.605 2.68 1.469-.865 1.9-2.939 1.037-3.544.346-.26.69-.605.95-.95.95-1.038 1.988-1.989 2.852-3.026.605-.778.95-1.728 1.556-2.506.346-.432 1.037-.778 1.555-1.037 1.556-.864 3.025-1.815 3.976-3.284.173-.173.432-.346.69-.518.26-.173.779-.173.865-.433.087-.172-.173-.604-.346-.864.346-.173.692-.518 1.383-.864-.26.52-.345.864-.518 1.21l.432.432c.778-.605 1.988-1.296 2.765-1.815 0-.086-.432-.432-.432-.432-.518.26-1.296.692-2.074 1.037.173-.259.173-.432.259-.518 1.21-.778 2.42-1.556 3.716-2.16 3.025-1.384 6.05-2.766 9.074-4.063.519-.259 1.21-.086 1.815-.086.259 0 .432 0 .692-.086 1.382-.432 2.765-.864 4.148-1.21a7.19 7.19 0 0 1 1.9-.259c2.594.086 5.186.086 7.779.26 1.123.085 2.16.345 3.197.69 1.297.432 2.679 1.037 3.889 1.642a42.747 42.747 0 0 1 4.235 2.593c2.506 1.642 4.839 3.456 7.345 4.926 2.42 1.47 4.32 3.456 5.877 5.703 1.9 2.68 4.062 5.1 4.926 8.383l1.296 5.704c.259 1.037.864 2.074.605 3.284-.432 2.16-.778 4.407-1.123 6.568-.173.864-.346 1.728-.26 2.592.173 2.68-.864 5.012-1.901 7.432-.346.778-.864 1.556-1.296 2.42.086.086.605.346.69.346l.779-1.556c.086 0 .086 0 .173.087-.432 1.21-.778 2.506-1.21 3.716-1.037 2.68-2.074 5.444-3.37 8.037-.692 1.47-1.902 2.68-2.766 4.061-.864 1.21-1.555 2.506-2.42 3.63-.777.951-1.555 1.901-2.592 2.593-2.334 1.728-4.753 3.456-7.26 4.84-1.555.95-3.37 1.468-5.098 1.9zm-46.062-4.58l-.086.086c-.173-.086-.432-.173-.605-.345l-2.074-3.11c-.173-.26-.26-.52-.173-.866a73.511 73.511 0 0 0 2.938 4.235zm53.753 11.84c3.889-1.643 7.087-3.976 10.025-6.655.432-.432.864-.864 1.383-1.21 3.629-2.247 6.308-5.358 8.728-8.815 2.765-3.975 4.58-8.469 6.827-12.703.173-.346.346-.692.519-.95-.173 9.851.95 19.53 2.246 29.295-9.765.346-19.703.692-29.728 1.037zm87.63-2.593c-.087.173-.26.345-.346.518-.087-.173-.087-.432-.173-.777-.52 1.382-1.642.691-2.42.691-4.666.086-9.42.086-14.086.086-4.494 0-9.074 0-13.568.087-1.47 0-3.025.345-4.494.432-3.543.173-7.086.26-10.63.345-.26 0-.518-.432-.95-.777-.086.173-.26.432-.52.777-.085-.172-.258-.345-.431-.604a5.98 5.98 0 0 1-.26.691h-.258c-.173-1.21-.52-2.333-.52-3.543 0-2.593.26-5.185.347-7.778.086-1.21 0-2.333 0-3.457.346.26.605.432.95.692.173-.346.346-.605.519-.865 0 0-.173-.086-.346-.259.173-.086.346-.259.346-.345.087-.26.259-.519.259-.692 0-.605-.172-1.123-.26-1.642.088 0 .174 0 .26-.086l.519 2.592h.259c-.345-.605.778-1.123-.173-1.815-.086-.086.087-.605.087-.864-.26-.518-.432-1.037-.692-1.728.087-.086.346-.173.605-.259-.345-.173-.605-.346-.864-.433.864-.777.864-1.209.087-2.074.172-.086.345-.086.345-.172 0-.778 0-1.556-.173-2.334-.172-.864.26-1.9-1.037-2.419a2.6 2.6 0 0 0 .346.691s-.26.086-.52.26c-1.122-1.038-.431-2.42-.69-3.976.605.173 1.037.346 1.469.518-.173-.604-.605-1.296-.864-2.074h-.346v-5.703c0 .086.605.086.95.172 0-.086.087-.172.087-.259-.26-.346-.605-.69-.95-1.123l.173-.173c-.692-.864-.346-2.074-.346-2.333v-6.05c.864.864-.432 1.988.864 2.506v-.864h-.086c-.087-1.296-.087-2.592-.173-3.889h-.173c-.086.173-.086.26-.173.432h-.173c.173-6.827.346-13.654.519-20.654.864 1.124 1.815 2.161 2.42 3.284 1.987 3.63 4.58 6.741 7 10.025 2.074 2.852 3.975 5.963 5.876 8.901 2.333 3.543 4.58 7.086 6.914 10.63a253.707 253.707 0 0 0 5.358 7.95c1.642 2.333 3.37 4.58 5.099 6.827 1.469 1.988 3.024 3.976 4.493 5.963 1.729 2.42 3.457 4.84 5.186 7.173.864 1.21 1.814 2.42 2.765 3.63.518.691 1.296 1.21 1.815 1.642-.087 0-.173 0-.346-.087.259.346.432.605.605.778.95.518 1.037 1.037.519 1.815zM240 153.418v-.605c0 .173.086.432 0 .605zm2.938-38.11c-.086 0-.605-.52-.691-.606-.087.26 0 .518-.173.864-.086-.259-.691-.173-.691-.432-.087 1.21.518 2.42.432 3.63.259-.173 1.296-.26 1.555-.519.087.087.259.173.346.173-1.728 1.296-1.296 2.593-.52 4.062.174.345.693 1.037.174 1.728-.173.173.087.692.173 1.124h.259v.172l-.777.26c-.173-.26-1.21-.778-1.21-1.21v4.407c.864.26.864 1.47 1.21 2.074.172-.259.259-.432.345-.69l.087.085c-.087.52-.173 1.037-.346 1.556-.173.778-.346 1.47-.432 2.247 0 .086.173.26.173.345-.951 2.161-.432 4.581-.778 6.828-.26 1.642 0 3.37-.173 5.098-.173 1.47-.518 3.025-.864 4.494-.086.26-.26.346-.691.52.172-1.038.086-1.73-.087-2.68-.086 0-1.21-.605-1.296-.605 0 1.21.69 2.852.95 4.234-.26-.086-1.296-.69-1.382-.69-.173 1.036-.173 2.42-.26 3.542-.086.864-.864 1.642-.95 2.593 0 .518.605.864.518 1.728h.692c0-1.728.778-3.284.778-5.099h.259c.086.173.346.346.259.433-.173.95-.518 1.987-.432 2.938 0 .518.432 1.037.259 1.642-.173.518-.26 1.037-.345 1.814-.087-.432-.173-.604-.173-.864-.087 0-.864-.086-.951-.086-.086.518.605 1.037.519 1.47-.087.086-.173.086-.346.172l-2.852-4.148c-2.247-3.284-4.494-6.568-6.741-9.938a20.627 20.627 0 0 1-1.555-2.593c-2.68-4.58-5.617-8.988-8.901-13.222-2.507-3.198-4.494-6.655-6.828-10.025-2.16-3.197-4.321-6.309-6.481-9.506-.778-1.037-1.728-1.988-2.42-3.11-2.247-3.544-4.234-7.174-6.481-10.717-1.901-2.939-3.976-5.79-5.963-8.642a92.195 92.195 0 0 1-2.074-3.025c-.087-.173-.173-.346-.173-.605-.173-1.9-.346-3.802-.432-5.617 0-1.729.173-3.457.173-5.272v-1.555c0-.432.086-.778.086-1.21.086-.087.173-.259.259-.346-2.506 0-5.098-.086-7.605 0-1.641.087-2.506-.605-3.63-1.814-3.283-3.717-5.703-7.95-8.555-11.926-2.68-3.803-5.444-7.519-8.21-11.235-2.246-3.025-4.493-5.963-6.74-8.988-2.506-3.456-4.926-6.913-7.52-10.37-3.11-4.148-6.307-8.296-9.505-12.444-1.47-1.902-3.111-3.716-4.753-5.704 1.123.173 2.16.346 3.198.432l4.148.26c3.11.26 6.222.431 9.333.863 2.593.346 5.185.865 7.864 1.297 5.704.95 11.32 2.506 16.766 4.321 3.197 1.037 6.308 2.42 9.419 3.716 7 2.852 13.655 6.308 20.222 9.938 2.075 1.123 3.284 2.938 4.84 4.58 2.247 2.334 4.494 4.667 6.654 7.087 2.506 2.852 4.84 5.79 7.259 8.728 2.16 2.593 4.408 5.185 6.568 7.778.692.778 1.21 1.728 1.815 2.592 1.383 2.074 2.938 4.062 4.148 6.31.865 1.641 1.383 3.542 1.988 5.357.864 2.68 1.728 5.272 2.593 7.951a71.016 71.016 0 0 1 1.555 6.135c.346 1.383.259 2.852.69 4.235.52 1.815 0 3.802.52 5.617.086.173.173.432.259.605.346.346.605.691.087 1.21-.087.086-.087.432 0 .691.172-.172.259-.345.432-.605 0 .173.086.26.086.346 0 .346-.086.691 0 1.037 0 .173.173.432.259.605.173-.173.346-.259.692-.518.777 2.938.864 5.876.864 8.901 0 2.852.518 5.703-.691 8.47.259-.952-.346-1.816-.087-2.68z"/><path d="M188.001 149.197c.086 0 .173.087.173.087l-.087-.087c0-.086 0-.086-.086 0zm13.654 85.383c-.95.691-1.901 1.296-3.111 1.555-.086-.086-.086-.173-.173-.259.951-.605 1.988-1.21 2.939-1.815.086.173.259.346.345.519zM39.619 117.481c.95-1.21 1.901-2.42 2.938-3.629.086.086.778.259.864.345-.95 1.21-2.247 2.852-3.197 4.148-.173-.172-.432-.777-.605-.864zm-24.543 42.346c-.692-1.469-1.383-3.025-2.074-4.494.086-.086.691-.346.777-.346.951 1.383 1.383 3.025 2.074 4.494 0 0-.691.346-.777.346zm22.037-41.482c-.519.778-1.037 1.642-1.556 2.42-.086-.086-1.037.346-1.123.259.518-.777 1.814-2.16 2.333-2.938.086.087.173.173.346.259zm155.295 119.778c.087 0 .087-.087.173-.087.605.087 1.297.173 1.988.173-1.124.778-1.815.692-2.161-.086zM37.285 121.975c.087-.259.26-.519.432-.778.173 0 .433-.086.433-.086.345-.605.345-1.037.691-1.556-.086-.086-.173-.086-.259-.173-.519.346-1.037.778-1.556 1.124.173.173.173.259.173.432-.691-.086-.951.259-1.296 1.21-.087.259-.519.345-.951.691-.086.173-.173.605-.346 1.037l.087.087a1.279 1.279 0 0 1-.432.259c-.519.518-1.124.951-1.642 1.469-.087.259-.173.519-.173.778.605-.605 1.642-1.729 2.42-2.42l.086.086c.346-.518.605-1.037.951-1.555.086.086.086.173.173.259-.26.691-.519 1.469-.778 2.161-.173.086-.432.259-.432.173-.346.259-.605.604-.951.864l-1.555 1.037c-.865.778-1.729 1.469-2.679 2.247-.605.95-1.21 1.814-1.902 2.938 1.037-.259 1.297.173 1.21 1.037 1.21.173 1.296-.778 1.642-1.469.087-.173.173-.519.346-.605.778-.691 1.642-1.296 2.506-1.988.173-.173.173-.518.173-.778 0-.086-.432-.086-.691-.172.777-.865 1.901-2.334 2.679-3.284.432-.26.864-.605.864-.865-.087-.95.518-1.209 1.209-1.555-.345-.259-.432-.519-.432-.605z"/><path d="M39.014 121.024c-.346.605-.691 1.124-1.037 1.729l-.519-.26c-.345 1.988-1.555 3.717-2.765 4.062.346.173.691.346.951.259.259-.086.432-.518.604-.777l2.334-3.371.778-1.296-.346-.346zm-28.778 37.938c.432 0 .864.087 1.383.087 0-.346.432-.259.432-.605h.259c0 .432.087.778.087 1.21h-1.815c-.087-.087-.432-.605-.346-.692zm-.691-3.975c-.259-.259-.692-.518-.692-.778-.086-.345.173-.777.433-1.209.172.604.259 1.123.432 1.728-.087.086-.173.173-.173.259zm2.16-5.531c.346.865.692 1.815 1.037 2.679-.086 0-.605.26-.691.346-.346-.864-.778-1.815-1.123-2.679.086-.086.604-.346.777-.346zm192.37 82.618c.432-.173.951-.26 1.642-.433-.778.605-1.383 1.037-1.901 1.556-.087-.087-.173-.173-.259-.173.172-.346.345-.605.518-.951v.001zM97.866 49.469c.518-.346.95-.605 1.469-.951l.173.173c-.519.692-.951 1.383-1.556 2.247-.086-.605-.086-.951-.173-1.383-.086 0 0 0 .087-.086zm25.32 43.728c.778-.345 1.556-.691 2.507-1.123-.087.518-.087.864-.087 1.21-.259-.087-.605-.173-.864-.173-.518.086-1.469.778-1.901.864-.087 0 .345-.691.345-.778zm64.815 73.284c.173.864 1.815 1.296.173 2.16.259.173.518.26.778.433 0 .086-.087.259-.173.345-.173.087-.519.26-.692.173-.086 0-.259-.346-.259-.518 0-.778.087-1.556.173-2.593z"/></g></svg><svg width="64" height="64" viewBox="0 0 256 296" preserveAspectRatio="xMinYMin meet" id="tech-logos--webpack" x="128" y="250" xmlns="http://www.w3.org/2000/svg"><defs><radialGradient fx="50%" fy="50%" id="bca"><stop stop-color="#93B4E7" offset="0%"/><stop stop-color="#B9D1F8" offset="59.273%"/><stop stop-color="#9CB6E0" offset="100%"/></radialGradient></defs><path d="M128.032.456L.298 74.203v147.495l127.734 73.748 127.735-73.748V74.203L128.032.456z" fill="url(#bca)"/><path d="M128.034 75.263L64.69 111.834v73.144l63.344 36.572 63.344-36.572v-73.144l-63.344-36.571z" fill="#6F95DB"/><path d="M128 0L0 74.25l128 69.693 128-69.238L128 0zm0 153.509L0 221.38l128 73.793 127.544-74.249L128 153.51z" fill="#FFF" fill-opacity=".1"/></svg><svg width="64" height="64" viewBox="0 0 510 510" id="tick-inside-circle" x="64" y="250" xmlns="http://www.w3.org/2000/svg"><path d="M150.45 206.55l-35.7 35.7L229.5 357l255-255-35.7-35.7-219.3 219.3-79.05-79.05zM459 255c0 112.2-91.8 204-204 204S51 367.2 51 255 142.8 51 255 51c20.4 0 38.25 2.55 56.1 7.65l40.801-40.8C321.3 7.65 288.15 0 255 0 114.75 0 0 114.75 0 255s114.75 255 255 255 255-114.75 255-255h-51z" data-original="#000000" class="bdactive-path" data-old_color="#000000" fill="#574C45"/></svg><svg width="64" height="64" viewBox="0 0 64 64" id="tools" y="250" xmlns="http://www.w3.org/2000/svg"><path d="M100.32 220.48c29.856-23.2 54.624-7.2 87.68 31.072 3.712 4.32 8.704-.736 11.552-3.2 2.816-2.496 46.432-41.76 48.576-43.552 2.112-1.888 4.672-5.408 1.312-9.344-3.424-3.936-15.808-20-23.776-30.432-57.856-75.68 158.272-127.008 125.088-127.808-16.896-.448-84.672-1.248-94.816-.128-41.056 4.32-92.608 42.688-118.56 60.576-33.952 23.232-46.624 36.864-48.704 38.752-9.6 8.384-1.536 27.744-18.944 43.008-18.4 16.096-29.888 3.904-40.544 13.248-5.28 4.672-20.064 15.744-24.288 19.424-4.256 3.744-5.024 10.048-.672 15.072 0 0 40.448 44.672 43.84 48.64 3.36 3.904 12.512 7.296 18.144 2.272 5.664-4.992 20.224-17.696 22.656-19.936 2.496-2.112-1.6-27.552 11.456-37.664zm182.656 16.544c-3.84-4.448-8.608-4.576-12.704-.928l-45.888 40.064c-3.616 3.2-4.128 9.056-.864 12.8l265.408 302.048c6.208 7.136 16.96 7.872 24.032 1.696L544 566.688c7.104-6.24 7.84-17.056 1.664-24.256L282.976 237.024zM636.864 108.48c-2.368-15.808-10.56-12.512-14.816-5.824-4.256 6.752-23.072 35.264-30.816 48.192-7.68 12.8-26.624 38.112-61.888 13.12-36.736-25.952-23.968-44.064-17.568-56.256 6.432-12.256 26.176-46.624 29.024-50.88 2.848-4.32-.48-16.864-11.872-11.616-11.424 5.248-80.736 32.8-90.336 72.32-9.824 40.192 8.224 76.128-27.2 111.808l-42.976 44.8 43.168 50.112 52.928-50.24c12.608-12.672 39.552-24.992 63.936-19.424 52.256 11.808 80.768-7.808 97.952-40.256 15.424-28.992 12.864-90.048 10.464-105.856zM87.648 545.696c-6.656 6.688-6.656 17.568 0 24.256l30.432 29.76c6.656 6.688 17.216 3.872 23.872-2.816l157.024-154.368-48.096-54.848L87.648 545.696z"/></svg><svg width="64" height="64" viewBox="0 0 791.957 791.957" id="trash-can" x="250" y="134" xmlns="http://www.w3.org/2000/svg"><path d="M585.82 235.876H209.179c-39.621 0-71.728 32.082-71.728 71.703l38.865 412.675c0 39.597 32.131 71.703 71.751 71.703h304.89c39.62 0 71.751-32.106 71.751-71.703l32.888-412.675c-.049-39.621-32.155-71.703-71.776-71.703zM301.839 666.41c0 19.786-16.053 35.814-35.864 35.814-19.81 0-35.863-16.053-35.863-35.814V343.467c0-19.786 16.053-35.888 35.863-35.888 19.811 0 35.864 16.102 35.864 35.888V666.41zm125.546 0c0 19.786-16.053 35.814-35.863 35.814s-35.863-16.053-35.863-35.814V343.467c0-19.786 16.053-35.888 35.863-35.888 19.811 0 35.863 16.102 35.863 35.888V666.41zm125.548 0c0 19.786-16.054 35.814-35.864 35.814s-35.863-16.053-35.863-35.814V343.467c0-19.786 16.053-35.888 35.863-35.888s35.864 16.102 35.864 35.888V666.41zM190.027 200.013L624.27 88.299c23.981-6.148 38.425-30.594 32.252-54.576-6.172-23.982-30.618-38.425-54.6-32.326L468.446 35.748c-12.369-18.347-35.205-27.983-57.845-22.177l-52.088 13.443c-22.641 5.831-37.986 25.275-39.987 47.306l-150.847 38.84c-23.982 6.148-38.401 30.594-32.253 54.576 6.173 24.006 30.619 38.4 54.601 32.277z" data-original="#000000" class="bfactive-path" data-old_color="#000000" fill="#574C45"/></svg><svg viewBox="0 0 75.999 75.999" width="64" height="64" id="two-quotes" x="192" y="314" xmlns="http://www.w3.org/2000/svg"><path d="M14.579 5C6.527 5 0 11.716 0 20c0 8.285 6.527 15 14.579 15C29.157 35 19.438 64 0 64v7C34.69 71 48.286 5 14.579 5zm42 0C48.527 5 42 11.716 42 20c0 8.285 6.527 15 14.579 15C71.157 35 61.438 64 42 64v7C76.69 71 90.286 5 56.579 5z" fill="#FFF"/></svg><svg viewBox="0 0 75.999 75.999" width="25" height="25" id="two-quotes-small" x="181" y="378" xmlns="http://www.w3.org/2000/svg"><path d="M14.579 5C6.527 5 0 11.716 0 20c0 8.285 6.527 15 14.579 15C29.157 35 19.438 64 0 64v7C34.69 71 48.286 5 14.579 5zm42 0C48.527 5 42 11.716 42 20c0 8.285 6.527 15 14.579 15C71.157 35 61.438 64 42 64v7C76.69 71 90.286 5 56.579 5z" fill="#FFF"/></svg><svg viewBox="0 0 329.531 329.531" width="64" height="64" id="write" x="322" y="128" xmlns="http://www.w3.org/2000/svg"><path d="M242.712 18.778c-4.296-4.296-4.296-11.261 0-15.557 4.296-4.295 11.26-4.295 15.556 0l42.589 42.587c4.296 4.296 4.296 11.261 0 15.557a10.97 10.97 0 0 1-7.778 3.222c-2.815 0-5.63-1.074-7.778-3.222l-42.589-42.587zm63.481 288.753H23.338c-6.075 0-11 4.925-11 11s4.925 11 11 11h282.854c6.075 0 11-4.925 11-11s-4.924-11-10.999-11zM28.675 275.405a10.998 10.998 0 0 1-2.861-10.573l15.176-57.767a11.003 11.003 0 0 1 2.861-4.983l169.027-169.03c4.296-4.295 11.26-4.295 15.556 0l42.591 42.589a10.998 10.998 0 0 1 0 15.556L101.997 260.225a11 11 0 0 1-4.982 2.86l-57.766 15.18a10.996 10.996 0 0 1-10.574-2.86zM51.879 252.2l36.666-9.636L247.691 83.419l-27.034-27.032L61.512 215.534 51.879 252.2z" data-original="#000000" class="biactive-path" data-old_color="#7B4747" fill="#574C45"/></svg></svg>